<?xml version="1.0" encoding="utf-8"?>
<!-- Generator: Adobe Illustrator 25.0.1, SVG Export Plug-In . SVG Version: 6.00 Build 0)  -->
<svg version="1.1" id="Capa_1" xmlns="http://www.w3.org/2000/svg" xmlns:xlink="http://www.w3.org/1999/xlink" x="0px" y="0px"
	 viewBox="0 0 512 512" style="enable-background:new 0 0 512 512;" xml:space="preserve">
<style type="text/css">
	.st0{opacity:0.5;fill:#CCFBF1;}
	.st1{opacity:0.1;fill:#2626BC;enable-background:new    ;}
	.st2{fill:#6583FE;}
	.st3{fill:#2D58E0;}
	.st4{fill:#1F50C9;}
	.st5{fill:#FFFFFF;}
	.st6{fill:#FFE266;}
	.st7{fill:#02FFB3;}
	.st8{fill:#9FB0FE;}
	.st9{fill:#2626BC;}
	.st10{fill:#B7C5FF;}
	.st11{fill:#DBEAFE;}
</style>
<g>
	<g>
		<path class="st0" d="M16.1,295.9c18.7,64,72.7,194.6,163.9,182.8c91.5-11.8,55.8-129.7,139.5-145.9c36.9-7.1,61.9,56.7,98.8,54.7
			c47.6-2.6,71.8-49.7,85.1-89.3c28.2-84-14-226.4-112.9-251c-86.2-21.5-96.3,83.9-171.3,53.2C177.1,83.4,181.3,32,130,21.6
			C-25.3-9.7-8.8,210.8,16.1,295.9L16.1,295.9z"/>
	</g>
	<g>
		<g>
			<g>
				<g>
					<path class="st1" d="M350.2,493.4H161.8c-16.6,0-30-13.4-30-30V82.7c0-16.6,13.4-30,30-30h188.5c16.6,0,30,13.4,30,30v380.7
						C380.2,480,366.8,493.4,350.2,493.4L350.2,493.4z"/>
					<path class="st2" d="M350.2,469.4H161.8c-16.6,0-30-13.4-30-30V58.7c0-16.6,13.4-30,30-30h188.5c16.6,0,30,13.4,30,30v380.7
						C380.2,456,366.8,469.4,350.2,469.4L350.2,469.4z"/>
					<path class="st3" d="M131.8,71.6h248.5v354.9H131.8V71.6z"/>
					<path class="st4" d="M239.2,201.9h-50.9c-5.5,0-10-4.5-10-10v-47c0-5.5,4.5-10,10-10h50.9c5.5,0,10,4.5,10,10v47
						C249.2,197.4,244.7,201.9,239.2,201.9z"/>
					<path class="st4" d="M324.1,201.6h-50.9c-5.5,0-10-4.5-10-10v-47c0-5.5,4.5-10,10-10h50.9c5.5,0,10,4.5,10,10v47
						C334.1,197.2,329.7,201.6,324.1,201.6z"/>
					<g>
						<path class="st4" d="M379.9,134.6v67h-21.5c-5.5,0-10-4.5-10-10v-47c0-5.5,4.5-10,10-10H379.9z"/>
					</g>
					<g>
						<path class="st5" d="M309.8,93.1H202.2c-2.8,0-5,2.2-5,5s2.2,5,5,5h107.7c2.8,0,5-2.2,5-5S312.6,93.1,309.8,93.1z"/>
					</g>
					<g>
						<g>
							<path class="st6" d="M239.2,191.4h-50.9c-5.5,0-10-4.5-10-10v-47c0-5.5,4.5-10,10-10h50.9c5.5,0,10,4.5,10,10v47
								C249.2,186.9,244.7,191.4,239.2,191.4z"/>
							<g>
								<path class="st5" d="M228.6,170.5h-20.7c-2.8,0-5,2.2-5,5s2.2,5,5,5h20.7c2.8,0,5-2.2,5-5S231.4,170.5,228.6,170.5z"/>
								<path class="st5" d="M228.6,154.2h-5.7c-2.8,0-5,2.2-5,5s2.2,5,5,5h5.7c2.8,0,5-2.2,5-5S231.4,154.2,228.6,154.2z"/>
							</g>
						</g>
						<g>
							<path class="st7" d="M324.1,191.1h-50.9c-5.5,0-10-4.5-10-10v-47c0-5.5,4.5-10,10-10h50.9c5.5,0,10,4.5,10,10v47
								C334.1,186.6,329.7,191.1,324.1,191.1z"/>
							<g>
								<path class="st5" d="M313.5,170.2h-20.7c-2.8,0-5,2.2-5,5s2.2,5,5,5h20.7c2.8,0,5-2.2,5-5S316.3,170.2,313.5,170.2z"/>
								<path class="st5" d="M313.5,153.9h-5.7c-2.8,0-5,2.2-5,5s2.2,5,5,5h5.7c2.8,0,5-2.2,5-5S316.3,153.9,313.5,153.9z"/>
							</g>
						</g>
						<g>
							<path class="st8" d="M379.9,124.1v67h-21.5c-5.5,0-10-4.5-10-10v-47c0-5.5,4.5-10,10-10L379.9,124.1z"/>
						</g>
					</g>
					<path class="st5" d="M131.8,426.5V241.8c0-13.8,11.2-25,25-25h198.5c13.8,0,25,11.2,25,25v184.7H131.8z"/>
					<path class="st9" d="M350.2,474.4H161.8c-19.3,0-35-15.7-35-35V58.7c0-19.3,15.7-35,35-35h188.5c19.3,0,35,15.7,35,35v380.7
						C385.2,458.7,369.5,474.4,350.2,474.4z M161.8,33.7c-13.8,0-25,11.2-25,25v380.7c0,13.8,11.2,25,25,25h188.5
						c13.8,0,25-11.2,25-25V58.7c0-13.8-11.2-25-25-25H161.8z"/>
					<g>
						<path class="st10" d="M273.5,56.1h-35c-2.8,0-5-2.2-5-5s2.2-5,5-5h35c2.8,0,5,2.2,5,5S276.2,56.1,273.5,56.1z"/>
					</g>
					<circle class="st10" cx="296.8" cy="51.1" r="5"/>
				</g>
			</g>
			<g>
				<g>
					<path class="st6" d="M234.6,249.1h-20.7c-2.8,0-5,2.2-5,5s2.2,5,5,5h20.7c2.8,0,5-2.2,5-5S237.4,249.1,234.6,249.1L234.6,249.1
						z"/>
					<path class="st6" d="M336.6,269.3H213.9c-2.8,0-5,2.2-5,5s2.2,5,5,5h122.7c2.8,0,5-2.2,5-5S339.4,269.3,336.6,269.3z"/>
				</g>
				<path class="st6" d="M184.9,279.3h-20.3c-2.8,0-5-2.2-5-5v-20.3c0-2.8,2.2-5,5-5h20.3c2.8,0,5,2.2,5,5v20.3
					C189.9,277.1,187.7,279.3,184.9,279.3z"/>
			</g>
			<g>
				<g>
					<path class="st7" d="M234.6,311h-20.7c-2.8,0-5,2.2-5,5s2.2,5,5,5h20.7c2.8,0,5-2.2,5-5S237.4,311,234.6,311z"/>
					<path class="st7" d="M336.6,331.3H213.9c-2.8,0-5,2.2-5,5s2.2,5,5,5h122.7c2.8,0,5-2.2,5-5S339.4,331.3,336.6,331.3z"/>
				</g>
				<path class="st7" d="M184.9,341.3h-20.3c-2.8,0-5-2.2-5-5V316c0-2.8,2.2-5,5-5h20.3c2.8,0,5,2.2,5,5v20.3
					C189.9,339,187.7,341.3,184.9,341.3z"/>
			</g>
			<g>
				<g>
					<path class="st2" d="M234.6,372.9h-20.7c-2.8,0-5,2.2-5,5s2.2,5,5,5h20.7c2.8,0,5-2.2,5-5S237.4,372.9,234.6,372.9z"/>
					<path class="st8" d="M336.6,393.2H213.9c-2.8,0-5,2.2-5,5s2.2,5,5,5h122.7c2.8,0,5-2.2,5-5S339.4,393.2,336.6,393.2z"/>
				</g>
				<path class="st8" d="M184.9,403.2h-20.3c-2.8,0-5-2.2-5-5v-20.3c0-2.8,2.2-5,5-5h20.3c2.8,0,5,2.2,5,5v20.3
					C189.9,401,187.7,403.2,184.9,403.2z"/>
			</g>
		</g>
		<path class="st2" d="M418.3,397.2c-7.9,0-14.3-6.4-14.3-14.3s6.4-14.3,14.3-14.3s14.3,6.4,14.3,14.3S426.2,397.2,418.3,397.2z
			 M418.3,378.7c-2.4,0-4.3,1.9-4.3,4.3s1.9,4.3,4.3,4.3s4.3-1.9,4.3-4.3S420.7,378.7,418.3,378.7z"/>
		<path class="st3" d="M82.9,184.4c-2.8,0-5-2.2-5-5c0-3.3-2.7-6-6-6c-2.8,0-5-2.2-5-5s2.2-5,5-5c3.3,0,6-2.7,6-6c0-2.8,2.2-5,5-5
			s5,2.2,5,5c0,3.3,2.7,6,6,6c2.8,0,5,2.2,5,5s-2.2,5-5,5c-3.3,0-6,2.7-6,6C87.9,182.2,85.7,184.4,82.9,184.4z"/>
		<path class="st3" d="M432.7,442.5c-2.8,0-5-2.2-5-5c0-3.3-2.7-6-6-6c-2.8,0-5-2.2-5-5s2.2-5,5-5c3.3,0,6-2.7,6-6c0-2.8,2.2-5,5-5
			s5,2.2,5,5c0,3.3,2.7,6,6,6c2.8,0,5,2.2,5,5s-2.2,5-5,5c-3.3,0-6,2.7-6,6C437.7,440.3,435.4,442.5,432.7,442.5z"/>
		<g>
			<path class="st11" d="M443.7,150.6c-2.8,0-5-2.2-5-5c0-3.3-2.7-6-6-6c-2.8,0-5-2.2-5-5s2.2-5,5-5c3.3,0,6-2.7,6-6
				c0-2.8,2.2-5,5-5s5,2.2,5,5c0,3.3,2.7,6,6,6c2.8,0,5,2.2,5,5s-2.2,5-5,5c-3.3,0-6,2.7-6,6C448.7,148.4,446.4,150.6,443.7,150.6z"
				/>
			<path class="st11" d="M72.6,233.7c-2.8,0-5-2.2-5-5c0-3.3-2.7-6-6-6c-2.8,0-5-2.2-5-5s2.2-5,5-5c3.3,0,6-2.7,6-6c0-2.8,2.2-5,5-5
				s5,2.2,5,5c0,3.3,2.7,6,6,6c2.8,0,5,2.2,5,5s-2.2,5-5,5c-3.3,0-6,2.7-6,6C77.6,231.5,75.4,233.7,72.6,233.7z"/>
		</g>
	</g>
</g>
</svg>
