<?xml version="1.0" encoding="utf-8"?>
<!-- Generator: Adobe Illustrator 25.0.1, SVG Export Plug-In . SVG Version: 6.00 Build 0)  -->
<svg version="1.1" id="Capa_1" xmlns="http://www.w3.org/2000/svg" xmlns:xlink="http://www.w3.org/1999/xlink" x="0px" y="0px"
	 viewBox="0 0 512 512" style="enable-background:new 0 0 512 512;" xml:space="preserve">
<style type="text/css">
	.st0{opacity:0.5;fill:#DBEAFE;}
	.st1{opacity:0.1;fill:#2626BC;enable-background:new    ;}
	.st2{fill:#6583FE;}
	.st3{fill:#8399FE;}
	.st4{fill:#FFFFFF;}
	.st5{fill:#97FFD2;}
	.st6{fill:#FFE266;}
	.st7{fill:#2626BC;}
	.st8{fill:#B7C5FF;}
	.st9{fill:#FFA8CF;}
	.st10{fill:#4369FD;}
	.st11{fill:#2D58E0;}
</style>
<g>
	<path class="st0" d="M408.2,154.3c-23.7-9.2-43.7-26.1-56-48.4C331.7,68.4,291.8,43,246,43c-47.5,0-88.6,27.4-108.5,67.2
		c-12.1,24.4-32.8,43.6-58.1,53.8C42.1,179,10.8,213.5,0.8,267.3c-1.1,5.9-1.1,12,0,17.9c15.4,83.6,82.4,120.4,143.3,110.7
		c34.1-5.5,68.7,5.9,94,29.5c51.4,47.9,133.9,62.9,213.9,11.6c9.4-6,22-18.6,28-28C549,301.3,497.9,189.2,408.2,154.3z"/>
	<path class="st1" d="M441,92.5H321.8c-4.7-6.5-10.3-12.3-16.6-17.1c-6.6-5.1-16.1-0.4-16.1,7.9v9.2h-66v-9.2c0-8.3-9.5-13-16.1-7.9
		c-6.4,4.9-12,10.6-16.7,17.2H71c-8.3,0-15,6.7-15,15v254.2c0,8.3,6.7,15,15,15h370c8.3,0,15-6.7,15-15V107.5
		C456,99.2,449.3,92.5,441,92.5L441,92.5z"/>
	<path class="st2" d="M312.7,470.4H199.3l22.7-89.9H290L312.7,470.4z"/>
	<path class="st3" d="M297.9,411.8h-83.9l7.9-31.3H290L297.9,411.8z"/>
	<path class="st4" d="M456,128.5v254.2c0,8.3-6.7,15-15,15H71c-8.3,0-15-6.7-15-15V128.5c0-8.3,6.7-15,15-15h370
		C449.3,113.5,456,120.2,456,128.5z"/>
	<path class="st5" d="M456,205.5v-77c0-8.3-6.7-15-15-15H71c-8.3,0-15,6.7-15,15v77H456z"/>
	<path class="st2" d="M227.5,207.5h57v139.9h-57V207.5z"/>
	<path class="st3" d="M284.5,207.5v43c-8.9,3.4-18.5,5.2-28.5,5.2c-10,0-19.6-1.9-28.5-5.3v-42.9L284.5,207.5z"/>
	<path class="st6" d="M456,161.7v-33.2c0-8.3-6.7-15-15-15H71c-8.3,0-15,6.7-15,15v33.2H456z"/>
	<path class="st2" d="M56,347.3v35.4c0,8.3,6.7,15,15,15h370c8.3,0,15-6.7,15-15v-35.4H56z"/>
	<path class="st2" d="M337,160.7c0,44.7-36.3,81-81,81c-44.8,0-81.6-37.3-81-82.1c0.3-25.8,12.8-48.8,31.9-63.3
		c6.6-5,16.1-0.4,16.1,7.9v34.5c0,5.5,4.5,10,10,10h46c5.5,0,10-4.5,10-10v-34.5c0-8.3,9.5-12.9,16.1-7.9
		C324.5,111.1,337,134.5,337,160.7z"/>
	<g>
		<path class="st7" d="M94.1,142.6c2.8,0,5-2.2,5-5v-0.1c0-2.8-2.2-5-5-5s-5,2.2-5,5v0.1C89.1,140.4,91.3,142.6,94.1,142.6z"/>
		<path class="st7" d="M113.4,142.6c2.8,0,5-2.2,5-5v-0.1c0-2.8-2.2-5-5-5s-5,2.2-5,5v0.1C108.4,140.4,110.6,142.6,113.4,142.6z"/>
		<path class="st7" d="M132.7,142.6c2.8,0,5-2.2,5-5v-0.1c0-2.8-2.2-5-5-5s-5,2.2-5,5v0.1C127.7,140.4,130,142.6,132.7,142.6z"/>
		<path class="st7" d="M441,108.5H324.4c-4.6-6-10-11.4-16.2-16.1c-4.6-3.5-10.7-4.1-15.9-1.6c-5.1,2.5-8.3,7.7-8.3,13.4v4.2h-33.4
			c-2.8,0-5,2.2-5,5s2.2,5,5,5H284v20.3c0,2.8-2.2,5-5,5h-46c-2.8,0-5-2.2-5-5v-34.5c0-5.7-3.2-10.9-8.3-13.4
			c-5.2-2.6-11.2-2-15.8,1.5c-6.2,4.7-11.6,10.1-16.2,16.1H71c-11,0-20,9-20,20v254.2c0,11,9,20,20,20h140.2l-15.8,62.7h-15.3
			c-2.8,0-5,2.2-5,5s2.2,5,5,5h151.9c2.8,0,5-2.2,5-5s-2.2-5-5-5h-15.3l-15.8-62.7H441c11,0,20-9,20-20V128.5
			C461,117.5,452,108.5,441,108.5L441,108.5z M61,342.3V166.7h109.2c1.4,20.4,10,39.5,24.7,54.4c8.1,8.2,17.4,14.5,27.5,18.9v102.5
			H61z M232.5,243.4c7.6,2.2,15.4,3.3,23.5,3.3c8.1,0,16-1.2,23.5-3.3v76.3c0,2.8,2.2,5,5,5s5-2.2,5-5V240
			c29.1-12.4,50-40.3,52.3-73.3H451v175.7H232.5V243.4z M441,118.5c5.5,0,10,4.5,10,10v28.2H341.9c-0.6-13.6-4.4-26.6-10.9-38.2H441
			z M209.9,100.3c0.9-0.7,2-1.1,3.1-1.1c0.8,0,1.5,0.2,2.3,0.5c0.8,0.4,2.8,1.7,2.8,4.5v34.5c0,8.3,6.7,15,15,15h46
			c8.3,0,15-6.7,15-15v-34.5c0-2.8,1.9-4,2.8-4.5c1.8-0.9,3.8-0.7,5.4,0.5c19,14.5,29.9,36.5,29.9,60.4c0,41.9-34.1,76-76,76
			c-20.3,0-39.4-8.1-53.9-22.7c-14.5-14.7-22.3-33.9-22.1-54.3C180.3,136.3,191.2,114.6,209.9,100.3L209.9,100.3z M71,118.5h110
			c-6.5,11.5-10.3,24.5-10.9,38.2H61v-28.2C61,123,65.5,118.5,71,118.5z M306.3,465.4H205.7l15.8-62.7h68.9L306.3,465.4z M441,392.7
			H71c-5.5,0-10-4.5-10-10v-30.4h390v30.4C451,388.3,446.5,392.7,441,392.7z"/>
	</g>
	<path class="st8" d="M160.8,244.9h-15c-2.8,0-5.1-2.3-5.1-5.1s2.3-5.1,5.1-5.1h15c2.8,0,5.1,2.3,5.1,5.1S163.6,244.9,160.8,244.9z"
		/>
	<path class="st9" d="M186.7,244.9h-6.6c-2.8,0-5.1-2.3-5.1-5.1s2.3-5.1,5.1-5.1h6.6c2.8,0,5.1,2.3,5.1,5.1S189.5,244.9,186.7,244.9
		z"/>
	<path class="st8" d="M186.7,265.3h-40.9c-2.8,0-5.1-2.3-5.1-5.1s2.3-5.1,5.1-5.1h40.9c2.8,0,5.1,2.3,5.1,5.1
		S189.5,265.3,186.7,265.3z"/>
	<path class="st10" d="M99.5,260.5c-1.3,0-2.6-0.5-3.5-1.5l-7-7c-2-2-2-5.1,0-7.1c2-2,5.1-2,7.1,0l3.4,3.4l12.3-12.3
		c2-2,5.1-2,7.1,0c2,2,2,5.1,0,7.1L103,259C102.1,260,100.8,260.5,99.5,260.5z"/>
	<path class="st8" d="M160.8,299.8h-15c-2.8,0-5.1-2.3-5.1-5.1s2.3-5.1,5.1-5.1h15c2.8,0,5.1,2.3,5.1,5.1S163.6,299.8,160.8,299.8z"
		/>
	<path class="st9" d="M186.7,299.8h-6.6c-2.8,0-5.1-2.3-5.1-5.1s2.3-5.1,5.1-5.1h6.6c2.8,0,5.1,2.3,5.1,5.1S189.5,299.8,186.7,299.8
		z"/>
	<path class="st8" d="M186.7,320.1h-40.9c-2.8,0-5.1-2.3-5.1-5.1s2.3-5.1,5.1-5.1h40.9c2.8,0,5.1,2.3,5.1,5.1
		C191.8,317.8,189.5,320.1,186.7,320.1z"/>
	<path class="st10" d="M99.5,315.4c-1.3,0-2.6-0.5-3.5-1.5l-7-7c-2-2-2-5.1,0-7.1c2-2,5.1-2,7.1,0l3.4,3.4l12.3-12.3
		c2-2,5.1-2,7.1,0c2,2,2,5.1,0,7.1L103,313.9C102.1,314.8,100.8,315.4,99.5,315.4z"/>
	<path class="st8" d="M393.5,244.9h-15c-2.8,0-5.1-2.3-5.1-5.1s2.3-5.1,5.1-5.1h15c2.8,0,5.1,2.3,5.1,5.1S396.3,244.9,393.5,244.9z"
		/>
	<path class="st9" d="M419.4,244.9h-6.6c-2.8,0-5.1-2.3-5.1-5.1s2.3-5.1,5.1-5.1h6.6c2.8,0,5.1,2.3,5.1,5.1S422.2,244.9,419.4,244.9
		z"/>
	<path class="st8" d="M419.4,265.3h-40.9c-2.8,0-5.1-2.3-5.1-5.1s2.3-5.1,5.1-5.1h40.9c2.8,0,5.1,2.3,5.1,5.1
		S422.2,265.3,419.4,265.3z"/>
	<path class="st10" d="M332.2,260.5c-1.3,0-2.6-0.5-3.5-1.5l-7-7c-2-2-2-5.1,0-7.1c2-2,5.1-2,7.1,0l3.4,3.4l12.3-12.3
		c2-2,5.1-2,7.1,0c2,2,2,5.1,0,7.1L335.7,259C334.8,260,333.5,260.5,332.2,260.5z"/>
	<path class="st8" d="M393.5,299.8h-15c-2.8,0-5.1-2.3-5.1-5.1s2.3-5.1,5.1-5.1h15c2.8,0,5.1,2.3,5.1,5.1S396.3,299.8,393.5,299.8z"
		/>
	<path class="st9" d="M419.4,299.8h-6.6c-2.8,0-5.1-2.3-5.1-5.1s2.3-5.1,5.1-5.1h6.6c2.8,0,5.1,2.3,5.1,5.1S422.2,299.8,419.4,299.8
		z"/>
	<path class="st8" d="M419.4,320.1h-40.9c-2.8,0-5.1-2.3-5.1-5.1s2.3-5.1,5.1-5.1h40.9c2.8,0,5.1,2.3,5.1,5.1
		C424.5,317.8,422.2,320.1,419.4,320.1z"/>
	<path class="st10" d="M332.2,315.4c-1.3,0-2.6-0.5-3.5-1.5l-7-7c-2-2-2-5.1,0-7.1c2-2,5.1-2,7.1,0l3.4,3.4l12.3-12.3
		c2-2,5.1-2,7.1,0c2,2,2,5.1,0,7.1l-15.8,15.8C334.8,314.8,333.5,315.4,332.2,315.4z"/>
	<path class="st2" d="M366.2,463.3c-2.8,0-5-2.2-5-5c0-3.3-2.7-6-6-6c-2.8,0-5-2.2-5-5s2.2-5,5-5c3.3,0,6-2.7,6-6c0-2.8,2.2-5,5-5
		s5,2.2,5,5c0,3.3,2.7,6,6,6c2.8,0,5,2.2,5,5s-2.2,5-5,5c-3.3,0-6,2.7-6,6C371.2,461.1,369,463.3,366.2,463.3z"/>
	<path class="st5" d="M342.9,89.6c-2.8,0-5-2.2-5-5c0-3.3-2.7-6-6-6c-2.8,0-5-2.2-5-5s2.2-5,5-5c3.3,0,6-2.7,6-6c0-2.8,2.2-5,5-5
		s5,2.2,5,5c0,3.3,2.7,6,6,6c2.8,0,5,2.2,5,5s-2.2,5-5,5c-3.3,0-6,2.7-6,6C347.9,87.4,345.7,89.6,342.9,89.6z"/>
	<g>
		<path class="st11" d="M273.5,68.6c-2.8,0-5-2.2-5-5c0-3.3-2.7-6-6-6c-2.8,0-5-2.2-5-5s2.2-5,5-5c3.3,0,6-2.7,6-6c0-2.8,2.2-5,5-5
			s5,2.2,5,5c0,3.3,2.7,6,6,6c2.8,0,5,2.2,5,5s-2.2,5-5,5c-3.3,0-6,2.7-6,6C278.5,66.4,276.2,68.6,273.5,68.6z"/>
		<path class="st11" d="M164.9,446.5c-2.8,0-5-2.2-5-5c0-3.3-2.7-6-6-6c-2.8,0-5-2.2-5-5s2.2-5,5-5c3.3,0,6-2.7,6-6c0-2.8,2.2-5,5-5
			s5,2.2,5,5c0,3.3,2.7,6,6,6c2.8,0,5,2.2,5,5s-2.2,5-5,5c-3.3,0-6,2.7-6,6C169.9,444.3,167.7,446.5,164.9,446.5z"/>
	</g>
</g>
</svg>
