<?xml version="1.0" encoding="utf-8"?>
<!-- Generator: Adobe Illustrator 25.0.1, SVG Export Plug-In . SVG Version: 6.00 Build 0)  -->
<svg version="1.1" id="Capa_1" xmlns="http://www.w3.org/2000/svg" xmlns:xlink="http://www.w3.org/1999/xlink" x="0px" y="0px"
	 viewBox="0 0 512 512" style="enable-background:new 0 0 512 512;" xml:space="preserve">
<style type="text/css">
	.st0{opacity:0.5;fill:#DBEAFE;}
	.st1{opacity:0.1;fill:#2626BC;enable-background:new    ;}
	.st2{fill:#FFE266;}
	.st3{fill:#FFFFFF;}
	.st4{fill:#B7C5FF;}
	.st5{fill:#9FB0FE;}
	.st6{fill:#6583FE;}
	.st7{fill:#02FFB3;}
	.st8{fill:#01ECA5;}
	.st9{fill:#2626BC;}
</style>
<g>
	<g>
		<g>
			<path class="st0" d="M97.1,38.2c-135.3,119.5,38.8,235.4,22.2,366c-7.4,58.1,16.1,113.6,92.7,107.2
				c93.4-7.7,59.5-97.2,79.1-156.8c33.7-102.5,240.7-78.6,154.9-236.4C391.3,17.5,190.3-44,97.1,38.2L97.1,38.2z"/>
		</g>
		<g>
			<path class="st1" d="M472,288.8h-20.4v-52.7c0-37.5-30.4-67.9-67.9-67.9h-81.9c3.4-8.1,5.3-17,5.3-26.3
				c0-37.5-30.4-67.9-67.9-67.9H120.9C83.4,74,53,104.4,53,141.9v57.9c0,5.5,4.5,10,10,10h49.8c-3.4,8.1-5.3,17-5.3,26.3
				c0,21.3,9.8,40.2,25.1,52.7H40c-5.5,0-10,4.5-10,10V476c0,5.5,4.5,10,10,10h432c5.5,0,10-4.5,10-10V298.8
				C482,293.3,477.5,288.8,472,288.8L472,288.8z"/>
			<g>
				<g>
					<g>
						<g>
							<g>
								<path class="st2" d="M63,185.8h176.2c37.5,0,67.9-30.4,67.9-67.9c0-37.5-30.4-67.9-67.9-67.9H120.9
									C83.4,50,53,80.4,53,117.9v57.9C53,181.3,57.5,185.8,63,185.8L63,185.8z"/>
							</g>
						</g>
						<g>
							<g>
								<g>
									<path class="st3" d="M107.3,94.9h64c2.8,0,5-2.2,5-5s-2.2-5-5-5h-64c-2.8,0-5,2.2-5,5S104.5,94.9,107.3,94.9z"/>
								</g>
								<g>
									<path class="st3" d="M107.3,113.5h136c2.8,0,5-2.2,5-5s-2.2-5-5-5h-136c-2.8,0-5,2.2-5,5S104.5,113.5,107.3,113.5z"/>
								</g>
							</g>
							<g>
								<g>
									<path class="st3" d="M107.3,132.2h136c2.8,0,5-2.2,5-5c0-2.8-2.2-5-5-5h-136c-2.8,0-5,2.2-5,5
										C102.3,130,104.5,132.2,107.3,132.2z"/>
								</g>
								<g>
									<path class="st3" d="M107.3,150.9h136c2.8,0,5-2.2,5-5s-2.2-5-5-5h-136c-2.8,0-5,2.2-5,5S104.5,150.9,107.3,150.9z"/>
								</g>
							</g>
						</g>
					</g>
				</g>
				<g>
					<path class="st3" d="M472,462H40c-5.5,0-10-4.5-10-10V274.8c0-5.5,4.5-10,10-10h432c5.5,0,10,4.5,10,10V452
						C482,457.5,477.5,462,472,462z"/>
					<path class="st4" d="M482,274.8v31.5H30v-31.5c0-5.5,4.5-10,10-10h432C477.5,264.8,482,269.3,482,274.8z"/>
					<g>
						<g>
							<path class="st5" d="M451.5,264.8v24.4c0,5.5-4.5,10-10,10H175.4c-25.3,0-47.4-13.9-59.1-34.4H451.5z"/>
						</g>
					</g>
					<circle class="st6" cx="78.3" cy="299.2" r="20.7"/>
					<g>
						<g>
							<path class="st4" d="M83.8,360.4H62.4c-2.7,0-4.9-2.2-4.9-4.9v-20.3c0-2.7,2.2-4.9,4.9-4.9h21.5c2.7,0,4.9,2.2,4.9,4.9v20.3
								C88.7,358.2,86.5,360.4,83.8,360.4z"/>
							<path class="st4" d="M124.5,360.4H103c-2.7,0-4.9-2.2-4.9-4.9v-20.3c0-2.7,2.2-4.9,4.9-4.9h21.5c2.7,0,4.9,2.2,4.9,4.9v20.3
								C129.3,358.2,127.2,360.4,124.5,360.4z"/>
							<path class="st4" d="M165.1,360.4h-21.5c-2.7,0-4.9-2.2-4.9-4.9v-20.3c0-2.7,2.2-4.9,4.9-4.9h21.5c2.7,0,4.9,2.2,4.9,4.9
								v20.3C170,358.2,167.8,360.4,165.1,360.4L165.1,360.4z"/>
							<path class="st4" d="M205.8,360.4h-21.5c-2.7,0-4.9-2.2-4.9-4.9v-20.3c0-2.7,2.2-4.9,4.9-4.9h21.5c2.7,0,4.9,2.2,4.9,4.9
								v20.3C210.6,358.2,208.5,360.4,205.8,360.4z"/>
							<path class="st4" d="M246.4,360.4h-21.5c-2.7,0-4.9-2.2-4.9-4.9v-20.3c0-2.7,2.2-4.9,4.9-4.9h21.5c2.7,0,4.9,2.2,4.9,4.9
								v20.3C251.3,358.2,249.1,360.4,246.4,360.4z"/>
							<path class="st4" d="M287.1,360.4h-21.5c-2.7,0-4.9-2.2-4.9-4.9v-20.3c0-2.7,2.2-4.9,4.9-4.9h21.5c2.7,0,4.9,2.2,4.9,4.9
								v20.3C291.9,358.2,289.7,360.4,287.1,360.4z"/>
							<path class="st4" d="M327.7,360.4h-21.5c-2.7,0-4.9-2.2-4.9-4.9v-20.3c0-2.7,2.2-4.9,4.9-4.9h21.5c2.7,0,4.9,2.2,4.9,4.9
								v20.3C332.6,358.2,330.4,360.4,327.7,360.4z"/>
							<path class="st4" d="M368.3,360.4h-21.5c-2.7,0-4.9-2.2-4.9-4.9v-20.3c0-2.7,2.2-4.9,4.9-4.9h21.5c2.7,0,4.9,2.2,4.9,4.9
								v20.3C373.2,358.2,371,360.4,368.3,360.4z"/>
							<path class="st4" d="M409,360.4h-21.5c-2.7,0-4.9-2.2-4.9-4.9v-20.3c0-2.7,2.2-4.9,4.9-4.9H409c2.7,0,4.9,2.2,4.9,4.9v20.3
								C413.9,358.2,411.7,360.4,409,360.4z"/>
							<path class="st4" d="M449.6,360.4h-21.5c-2.7,0-4.9-2.2-4.9-4.9v-20.3c0-2.7,2.2-4.9,4.9-4.9h21.5c2.7,0,4.9,2.2,4.9,4.9
								v20.3C454.5,358.2,452.3,360.4,449.6,360.4z"/>
						</g>
						<g>
							<path class="st4" d="M83.8,398.9H62.4c-2.7,0-4.9-2.2-4.9-4.9v-20.3c0-2.7,2.2-4.9,4.9-4.9h21.5c2.7,0,4.9,2.2,4.9,4.9V394
								C88.7,396.7,86.5,398.9,83.8,398.9z"/>
							<path class="st4" d="M124.5,398.9H103c-2.7,0-4.9-2.2-4.9-4.9v-20.3c0-2.7,2.2-4.9,4.9-4.9h21.5c2.7,0,4.9,2.2,4.9,4.9V394
								C129.3,396.7,127.2,398.9,124.5,398.9z"/>
							<path class="st4" d="M165.1,398.9h-21.5c-2.7,0-4.9-2.2-4.9-4.9v-20.3c0-2.7,2.2-4.9,4.9-4.9h21.5c2.7,0,4.9,2.2,4.9,4.9V394
								C170,396.7,167.8,398.9,165.1,398.9L165.1,398.9z"/>
							<path class="st4" d="M205.8,398.9h-21.5c-2.7,0-4.9-2.2-4.9-4.9v-20.3c0-2.7,2.2-4.9,4.9-4.9h21.5c2.7,0,4.9,2.2,4.9,4.9V394
								C210.6,396.7,208.5,398.9,205.8,398.9z"/>
							<path class="st4" d="M246.4,398.9h-21.5c-2.7,0-4.9-2.2-4.9-4.9v-20.3c0-2.7,2.2-4.9,4.9-4.9h21.5c2.7,0,4.9,2.2,4.9,4.9V394
								C251.3,396.7,249.1,398.9,246.4,398.9z"/>
							<path class="st4" d="M287.1,398.9h-21.5c-2.7,0-4.9-2.2-4.9-4.9v-20.3c0-2.7,2.2-4.9,4.9-4.9h21.5c2.7,0,4.9,2.2,4.9,4.9V394
								C291.9,396.7,289.7,398.9,287.1,398.9z"/>
							<path class="st4" d="M327.7,398.9h-21.5c-2.7,0-4.9-2.2-4.9-4.9v-20.3c0-2.7,2.2-4.9,4.9-4.9h21.5c2.7,0,4.9,2.2,4.9,4.9V394
								C332.6,396.7,330.4,398.9,327.7,398.9z"/>
							<path class="st4" d="M368.3,398.9h-21.5c-2.7,0-4.9-2.2-4.9-4.9v-20.3c0-2.7,2.2-4.9,4.9-4.9h21.5c2.7,0,4.9,2.2,4.9,4.9V394
								C373.2,396.7,371,398.9,368.3,398.9z"/>
							<path class="st4" d="M409,398.9h-21.5c-2.7,0-4.9-2.2-4.9-4.9v-20.3c0-2.7,2.2-4.9,4.9-4.9H409c2.7,0,4.9,2.2,4.9,4.9V394
								C413.9,396.7,411.7,398.9,409,398.9z"/>
							<path class="st4" d="M449.6,398.9h-21.5c-2.7,0-4.9-2.2-4.9-4.9v-20.3c0-2.7,2.2-4.9,4.9-4.9h21.5c2.7,0,4.9,2.2,4.9,4.9V394
								C454.5,396.7,452.3,398.9,449.6,398.9z"/>
						</g>
						<g>
							<path class="st4" d="M83.8,437.4H62.4c-2.7,0-4.9-2.2-4.9-4.9v-20.3c0-2.7,2.2-4.9,4.9-4.9h21.5c2.7,0,4.9,2.2,4.9,4.9v20.3
								C88.7,435.2,86.5,437.4,83.8,437.4z"/>
							<path class="st4" d="M124.5,437.4H103c-2.7,0-4.9-2.2-4.9-4.9v-20.3c0-2.7,2.2-4.9,4.9-4.9h21.5c2.7,0,4.9,2.2,4.9,4.9v20.3
								C129.3,435.2,127.2,437.4,124.5,437.4z"/>
							<path class="st4" d="M327.7,437.4H143.7c-2.7,0-4.9-2.2-4.9-4.9v-20.3c0-2.7,2.2-4.9,4.9-4.9h184.1c2.7,0,4.9,2.2,4.9,4.9
								v20.3C332.6,435.2,330.4,437.4,327.7,437.4z"/>
							<path class="st4" d="M368.3,437.4h-21.5c-2.7,0-4.9-2.2-4.9-4.9v-20.3c0-2.7,2.2-4.9,4.9-4.9h21.5c2.7,0,4.9,2.2,4.9,4.9
								v20.3C373.2,435.2,371,437.4,368.3,437.4z"/>
							<path class="st4" d="M409,437.4h-21.5c-2.7,0-4.9-2.2-4.9-4.9v-20.3c0-2.7,2.2-4.9,4.9-4.9H409c2.7,0,4.9,2.2,4.9,4.9v20.3
								C413.9,435.2,411.7,437.4,409,437.4z"/>
							<path class="st4" d="M449.6,437.4h-21.5c-2.7,0-4.9-2.2-4.9-4.9v-20.3c0-2.7,2.2-4.9,4.9-4.9h21.5c2.7,0,4.9,2.2,4.9,4.9
								v20.3C454.5,435.2,452.3,437.4,449.6,437.4z"/>
						</g>
					</g>
				</g>
				<g>
					<g>
						<g>
							<g>
								<path class="st7" d="M441.6,280H175.4c-37.5,0-67.9-30.4-67.9-67.9c0-37.5,30.4-67.9,67.9-67.9h208.3
									c37.5,0,67.9,30.4,67.9,67.9V270C451.6,275.5,447.1,280,441.6,280z"/>
							</g>
						</g>
						<g>
							<g>
								<g>
									<path class="st3" d="M397.3,189.1h-154c-2.8,0-5-2.2-5-5s2.2-5,5-5h154c2.8,0,5,2.2,5,5S400.1,189.1,397.3,189.1z"/>
								</g>
								<g>
									<path class="st3" d="M397.3,207.8h-226c-2.8,0-5-2.2-5-5s2.2-5,5-5h226c2.8,0,5,2.2,5,5S400.1,207.8,397.3,207.8
										L397.3,207.8z"/>
								</g>
							</g>
							<g>
								<g>
									<path class="st3" d="M397.3,226.4h-226c-2.8,0-5-2.2-5-5s2.2-5,5-5h226c2.8,0,5,2.2,5,5S400.1,226.4,397.3,226.4
										L397.3,226.4z"/>
								</g>
								<g>
									<path class="st3" d="M397.3,245.1h-226c-2.8,0-5-2.2-5-5s2.2-5,5-5h226c2.8,0,5,2.2,5,5S400.1,245.1,397.3,245.1
										L397.3,245.1z"/>
								</g>
							</g>
						</g>
					</g>
				</g>
			</g>
			<path class="st2" d="M342,100.9c-2.8,0-5-2.2-5-5c0-3.3-2.7-6-6-6c-2.8,0-5-2.2-5-5s2.2-5,5-5c3.3,0,6-2.7,6-6c0-2.8,2.2-5,5-5
				s5,2.2,5,5c0,3.3,2.7,6,6,6c2.8,0,5,2.2,5,5s-2.2,5-5,5c-3.3,0-6,2.7-6,6C347,98.7,344.8,100.9,342,100.9z"/>
			<path class="st8" d="M393.7,90.1c-2.8,0-5-2.2-5-5c0-3.3-2.7-6-6-6c-2.8,0-5-2.2-5-5s2.2-5,5-5c3.3,0,6-2.7,6-6c0-2.8,2.2-5,5-5
				s5,2.2,5,5c0,3.3,2.7,6,6,6c2.8,0,5,2.2,5,5s-2.2,5-5,5c-3.3,0-6,2.7-6,6C398.7,87.9,396.4,90.1,393.7,90.1z"/>
			<path class="st8" d="M52.7,249.1c-1.3,0-2.6-0.5-3.5-1.5l-11.3-11.3c-2-2-2-5.1,0-7.1l11.3-11.3c0.9-0.9,2.2-1.5,3.5-1.5
				s2.6,0.5,3.5,1.5l11.3,11.3c2,2,2,5.1,0,7.1l-11.3,11.3C55.3,248.5,54,249.1,52.7,249.1z M48.5,232.8l4.2,4.2l4.2-4.2l-4.2-4.2
				L48.5,232.8z"/>
			<g>
				<path class="st6" d="M431.6,138.5c-1.3,0-2.6-0.5-3.5-1.5l-11.3-11.3c-0.9-0.9-1.5-2.2-1.5-3.5s0.5-2.6,1.5-3.5l11.3-11.3
					c2-2,5.1-2,7.1,0l11.3,11.3c0.9,0.9,1.5,2.2,1.5,3.5s-0.5,2.6-1.5,3.5l-11.3,11.3C434.2,138,432.9,138.5,431.6,138.5z
					 M427.4,122.2l4.2,4.2l4.2-4.2l-4.2-4.2L427.4,122.2z"/>
				<path class="st6" d="M296.7,54.3c-1.3,0-2.6-0.5-3.5-1.5l-11.3-11.3c-2-2-2-5.1,0-7.1l11.3-11.3c0.9-0.9,2.2-1.5,3.5-1.5
					s2.6,0.5,3.5,1.5l11.3,11.3c2,2,2,5.1,0,7.1l-11.3,11.3C299.3,53.7,298,54.3,296.7,54.3z M292.5,37.9l4.2,4.2l4.2-4.2l-4.2-4.2
					L292.5,37.9z"/>
			</g>
		</g>
	</g>
	<path class="st9" d="M472,259.8h-15.4v-47.7c0-40.2-32.7-72.9-72.9-72.9h-74.8c2.1-6.9,3.2-14,3.2-21.3c0-40.2-32.7-72.9-72.9-72.9
		H120.9C80.7,45,48,77.7,48,117.9v57.9c0,8.3,6.7,15,15,15h16.3c2.8,0,5-2.2,5-5s-2.2-5-5-5H63c-2.8,0-5-2.2-5-5v-57.9
		C58,83.2,86.2,55,120.9,55h118.3c34.7,0,62.9,28.2,62.9,62.9c0,7.3-1.3,14.5-3.7,21.3H175.4c-40.2,0-72.9,32.7-72.9,72.9
		c0,18.2,6.7,34.9,17.8,47.7H40c-8.3,0-15,6.7-15,15V452c0,8.3,6.7,15,15,15h432c8.3,0,15-6.7,15-15V350.8c0-2.8-2.2-5-5-5
		s-5,2.2-5,5V452c0,2.8-2.2,5-5,5H40c-2.8,0-5-2.2-5-5V274.8c0-2.8,2.2-5,5-5h90.9c12.3,9.5,27.7,15.2,44.5,15.2h266.2
		c8.3,0,15-6.7,15-15v-0.2H472c2.8,0,5,2.2,5,5v42.4c0,2.8,2.2,5,5,5s5-2.2,5-5v-42.4C487,266.5,480.3,259.8,472,259.8L472,259.8z
		 M446.6,270c0,2.8-2.2,5-5,5H175.4c-34.7,0-62.9-28.2-62.9-62.9s28.2-62.9,62.9-62.9h208.3c34.7,0,62.9,28.2,62.9,62.9L446.6,270
		L446.6,270z"/>
</g>
</svg>
