<?xml version="1.0" encoding="utf-8"?>
<!-- Generator: Adobe Illustrator 25.0.1, SVG Export Plug-In . SVG Version: 6.00 Build 0)  -->
<svg version="1.1" id="Capa_1" xmlns="http://www.w3.org/2000/svg" xmlns:xlink="http://www.w3.org/1999/xlink" x="0px" y="0px"
	 viewBox="0 0 512 512" style="enable-background:new 0 0 512 512;" xml:space="preserve">
<style type="text/css">
	.st0{opacity:0.5;fill:#DBEAFE;}
	.st1{opacity:0.11;fill:#2626BC;enable-background:new    ;}
	.st2{fill:#9FB0FE;}
	.st3{fill:#8399FE;}
	.st4{fill:#D2DEFF;}
	.st5{fill:#B7C5FF;}
	.st6{fill:#FEF3C7;}
	.st7{fill:#02FFB3;}
	.st8{fill:#2D58E0;}
	.st9{fill:#DBEAFE;}
	.st10{fill:#97FFD2;}
	.st11{fill:#DCFDEE;}
	.st12{fill:#2626BC;}
	.st13{fill:#FFE266;}
	.st14{fill:#01ECA5;}
	.st15{fill:#FFFFFF;}
</style>
<path class="st0" d="M38.1,134.7C58.1,77,95.7-23.1,175.9,4.8c31.2,10.9,41,52.2,72.4,57.3c29.6,4.9,54.7-24.3,82.9-29.8
	c35-6.9,72.1,2.3,85.4,36.5c15.9,40.9-31,86.7-19.7,124.1c18.7,61.6,87.9-40.5,100.2,58.9c17.3,139-136.8,386.5-240.6,183
	c-52.6-103.2-107.8-30.8-189.9-82.2C-11.4,303.9,12.8,208,38.1,134.7L38.1,134.7z"/>
<path class="st1" d="M443.8,385.2c-2.8-27.7-15.7-52.5-34.9-70.6c-5.6-5.3-11.8-10-18.4-14.1h25.2c5.5,0,10-4.5,10-10v-77.9
	c0-5.5-4.5-10-10-10h-77.9c-3,0-5.6,1.3-7.5,3.4c-24.8-67.1-56.6-112.4-77-136.9c-8-9.7-22.8-9.7-30.8,0c-5.2,6.2-11,13.7-17.4,22.6
	V60.8c0-5.2-4.2-9.3-9.3-9.3H111c-5.2,0-9.3,4.2-9.3,9.3v69.1c0,5.1,4.2,9.3,9.3,9.3h64.8c-20.1,37.2-40.3,86-53.1,146.8
	c-48.2,9.5-85.4,49.6-90.4,99.3c-0.6,5.9,4.1,10.9,10,10.9h67c-0.1,2.3-0.2,4.5-0.2,6.8c-0.3,11.3,8.7,20.6,20,20.6h28.7l-6.3,12
	L139.5,458c-3.5,6.7,1.3,14.7,8.9,14.7h16.7v13.9c0,5.5,4.5,10,10,10h15.5c5.5,0,10-4.5,10-10v-13.9h74.9v13.9c0,5.5,4.5,10,10,10
	h15.5c5.5,0,10-4.5,10-10v-13.9h16.7c7.5,0,12.4-8,8.9-14.7l-11.8-22.5l-6.3-12H347c11.3,0,20.3-9.3,20-20.6
	c-0.1-2.3-0.1-4.5-0.2-6.8h67C439.7,396.2,444.4,391.1,443.8,385.2L443.8,385.2z"/>
<path class="st2" d="M208.6,478.5h-15.5c-5.5,0-10-4.5-10-10v-31h35.5v31C218.6,474.1,214.1,478.5,208.6,478.5z"/>
<path class="st3" d="M183.1,437.6h35.5v27.6h-35.5V437.6z"/>
<path class="st2" d="M318.9,478.5h-15.5c-5.5,0-10-4.5-10-10v-31h35.5v31C328.9,474.1,324.5,478.5,318.9,478.5z"/>
<path class="st3" d="M293.4,437.6h35.5v27.6h-35.5V437.6z"/>
<path class="st4" d="M345.7,454.7H166.3c-7.5,0-12.4-8-8.9-14.7l11.8-22.5l10.4-19.8h152.5l10.4,19.8l11.8,22.5
	C358,446.7,353.2,454.7,345.7,454.7z"/>
<path class="st5" d="M342.7,417.6H169.3l10.4-19.8h152.5L342.7,417.6z"/>
<path class="st2" d="M451.9,378.2H349.4V265.8c30,0,57.3,11.7,77.5,30.8c19.2,18.1,32.1,42.9,34.9,70.6
	C462.4,373.1,457.7,378.2,451.9,378.2z"/>
<path class="st3" d="M426.9,296.6h-71.1c-2.4,0-4.7-0.9-6.4-2.3v-28.5C379.4,265.8,406.7,277.5,426.9,296.6z"/>
<path class="st2" d="M50.2,367.2c5.8-57,53.9-101.4,112.4-101.4v112.4H60.2C54.3,378.2,49.6,373.1,50.2,367.2L50.2,367.2z"/>
<path class="st6" d="M240.6,51.1C204.4,94.7,132.1,203.8,127,385c-0.3,11.3,8.7,20.6,20,20.6H365c11.3,0,20.3-9.3,20-20.6
	c-5.2-181.2-77.4-290.3-113.6-333.9C263.4,41.4,248.6,41.4,240.6,51.1L240.6,51.1z"/>
<path class="st7" d="M291.5,77.5c-9.5,8.2-21.9,13.2-35.5,13.2s-25.9-5-35.5-13.2c7.3-10.6,14.2-19.4,20.1-26.4
	c8-9.6,22.8-9.6,30.8,0C277.3,58.2,284.1,67,291.5,77.5z"/>
<path class="st8" d="M376.8,296.6h-20.9c-5.5,0-10-4.5-10-10v-77.9c0-4.3,2.7-8,6.6-9.4C362.3,228,370.9,260.4,376.8,296.6z"/>
<path class="st8" d="M223.2,73.7v52.2c0,5.2-4.2,9.3-9.3,9.3h-27.5C198.9,110.3,211.8,89.8,223.2,73.7z"/>
<path class="st9" d="M284.4,405.1h-56.7v-95.3c0-2.8,2.2-5,5-5h46.7c2.8,0,5,2.2,5,5V405.1z"/>
<path class="st7" d="M433.8,282.5h-77.9c-5.5,0-10-4.5-10-10v-77.9c0-5.5,4.5-10,10-10h77.9c5.5,0,10,4.5,10,10v77.9
	C443.8,278,439.3,282.5,433.8,282.5z"/>
<path class="st10" d="M443.8,194.6v77.9c0,5.5-4.5,10-10,10h-16.7c5.5,0,10-4.5,10-10v-77.9c0-5.5-4.5-10-10-10h16.7
	C439.3,184.6,443.8,189,443.8,194.6L443.8,194.6z"/>
<path class="st2" d="M223.2,42.8v69c0,5.2-4.2,9.3-9.3,9.3H129c-5.2,0-9.3-4.2-9.3-9.3V42.8c0-5.2,4.2-9.3,9.3-9.3h84.9
	C219.1,33.5,223.2,37.6,223.2,42.8z"/>
<path class="st11" d="M160.9,62.8h-16.7c-2.8,0-5-2.2-5-5s2.2-5,5-5h16.7c2.8,0,5,2.2,5,5S163.6,62.8,160.9,62.8z"/>
<path class="st5" d="M223.2,42.8v69c0,5.2-4.2,9.3-9.3,9.3h-16.4c5.1,0,9.3-4.2,9.3-9.3V42.8c0-5.2-4.2-9.3-9.3-9.3h16.4
	C219.1,33.5,223.2,37.6,223.2,42.8z"/>
<path class="st10" d="M223.2,60.9v51c0,5.2-4.2,9.3-9.3,9.3H129c-5.2,0-9.3-4.2-9.3-9.3V96.2h17.6c2.6,0,5.2-1.1,7.1-2.9L157.6,80
	c1.9-1.9,4.4-2.9,7.1-2.9h38.2c1.4,0,2.7-0.3,3.9-0.8c1.2-0.5,2.2-1.2,3.1-2.1L223.2,60.9z"/>
<path class="st11" d="M223.2,60.9v51c0,5.2-4.2,9.3-9.3,9.3h-16.4c5.1,0,9.3-4.2,9.3-9.3V76.3c1.2-0.5,2.2-1.2,3.1-2.1L223.2,60.9z"
	/>
<g>
	<path class="st12" d="M279.4,383.5v-65.2c0-2.8,2.2-5,5-5s5,2.2,5,5v65.2c0,2.8-2.2,5-5,5S279.4,386.2,279.4,383.5z"/>
	<circle class="st12" cx="212.3" cy="344.3" r="5.6"/>
	<circle class="st12" cx="212.3" cy="327.4" r="5.6"/>
	<circle class="st12" cx="212.3" cy="310.5" r="5.6"/>
</g>
<circle class="st9" cx="256" cy="180.5" r="45.1"/>
<path class="st8" d="M301.1,180.5c0,24.9-20.2,45.1-45.1,45.1c-16.5,0-30.9-8.9-38.8-22.1c6.4,3.5,13.8,5.5,21.6,5.5
	c24.9,0,45.1-20.2,45.1-45.1c0-8.4-2.3-16.3-6.3-23.1C291.7,148.5,301.2,163.4,301.1,180.5L301.1,180.5z"/>
<path class="st3" d="M134.1,173.4c-3.7,0-7.5-1.4-10.3-4.3c-2.8-2.8-4.3-6.4-4.3-10.3s1.5-7.6,4.3-10.3s6.4-4.3,10.3-4.3
	s7.6,1.5,10.3,4.3c5.7,5.7,5.7,15,0,20.7C141.5,171.9,137.8,173.4,134.1,173.4z M134.1,154.2c-1.2,0-2.4,0.5-3.3,1.3
	c-0.9,0.9-1.4,2-1.4,3.3s0.5,2.4,1.3,3.3c1.8,1.8,4.7,1.8,6.5,0c1.8-1.8,1.8-4.7,0-6.5C136.5,154.6,135.3,154.2,134.1,154.2
	L134.1,154.2z"/>
<path class="st13" d="M345.8,77.4c-3.9,0-7.6-1.5-10.3-4.3c-5.7-5.7-5.7-15,0-20.7c5.7-5.7,15-5.7,20.6,0c5.7,5.7,5.7,15,0,20.7h0
	c0,0,0,0,0,0C353.4,75.9,349.7,77.4,345.8,77.4z M345.8,58.2c-1.2,0-2.4,0.4-3.3,1.3c-1.8,1.8-1.8,4.7,0,6.5c0.9,0.9,2,1.3,3.3,1.3
	s2.4-0.5,3.3-1.3h0c1.8-1.8,1.8-4.7,0-6.5C348.2,58.6,347,58.2,345.8,58.2z"/>
<path class="st14" d="M428.8,153.6h-3.2v-3.2c0-2.8-2.2-5-5-5s-5,2.2-5,5v3.2h-3.2c-2.8,0-5,2.2-5,5s2.2,5,5,5h3.2v3.2
	c0,2.8,2.2,5,5,5s5-2.2,5-5v-3.2h3.2c2.8,0,5-2.2,5-5S431.5,153.6,428.8,153.6z"/>
<path class="st13" d="M114.6,185.1h-3.2v-3.2c0-2.8-2.2-5-5-5s-5,2.2-5,5v3.2h-3.2c-2.8,0-5,2.2-5,5s2.2,5,5,5h3.2v3.2
	c0,2.8,2.2,5,5,5s5-2.2,5-5v-3.2h3.2c2.8,0,5-2.2,5-5S117.4,185.1,114.6,185.1z"/>
<path class="st14" d="M135.2,426h-3.2v-3.2c0-2.8-2.2-5-5-5s-5,2.2-5,5v3.2h-3.2c-2.8,0-5,2.2-5,5s2.2,5,5,5h3.2v3.2
	c0,2.8,2.2,5,5,5c2.8,0,5-2.2,5-5V436h3.2c2.8,0,5-2.2,5-5S138,426,135.2,426z"/>
<path class="st4" d="M432.9,354.9h-28.9c-2.8,0-5-2.2-5-5s2.2-5,5-5h28.9c2.8,0,5,2.2,5,5S435.7,354.9,432.9,354.9z"/>
<path class="st4" d="M107.9,354.9H79.1c-2.8,0-5-2.2-5-5s2.2-5,5-5h28.9c2.8,0,5,2.2,5,5S110.7,354.9,107.9,354.9z"/>
<path class="st15" d="M377.6,229.4c-7.2,0-13-5.8-13-13s5.8-13,13-13s13,5.8,13,13S384.8,229.4,377.6,229.4z M377.6,213.4
	c-1.7,0-3,1.4-3,3s1.4,3,3,3s3-1.4,3-3S379.3,213.4,377.6,213.4z"/>
<path class="st15" d="M412,263.7c-7.2,0-13-5.8-13-13s5.8-13,13-13s13,5.8,13,13S419.2,263.7,412,263.7z M412,247.7
	c-1.7,0-3,1.4-3,3s1.4,3,3,3s3-1.4,3-3S413.6,247.7,412,247.7z"/>
<path class="st15" d="M380.6,252.7c-1.3,0-2.6-0.5-3.5-1.5c-2-2-2-5.1,0-7.1l28.4-28.4c2-2,5.1-2,7.1,0c2,2,2,5.1,0,7.1l-28.4,28.4
	C383.2,252.2,381.9,252.7,380.6,252.7z"/>
<path class="st9" d="M247.7,285.2h-5.3c-6.5,0-11.8-5.3-11.8-11.8v-16.5c0-6.5,5.3-11.8,11.8-11.8h5.3c6.5,0,11.8,5.3,11.8,11.8
	v16.5C259.5,279.9,254.2,285.2,247.7,285.2z M242.3,255.1c-1,0-1.8,0.8-1.8,1.8v16.5c0,1,0.8,1.8,1.8,1.8h5.3c1,0,1.8-0.8,1.8-1.8
	v-16.5c0-1-0.8-1.8-1.8-1.8H242.3z"/>
<path class="st9" d="M276.5,285.2c-2.8,0-5-2.2-5-5v-25.1H271c-2.8,0-5-2.2-5-5s2.2-5,5-5h5.4c2.8,0,5,2.2,5,5v30.1
	C281.5,282.9,279.2,285.2,276.5,285.2z"/>
<path class="st12" d="M466.8,366.7c-3.2-31.4-18.5-59.5-42.6-79.2h9.6c8.3,0,15-6.7,15-15v-77.9c0-8.3-6.7-15-15-15h-77.9
	c-1.7,0-3.4,0.3-5,0.9c-24.3-63.5-54.4-107-75.6-132.5c-4.8-5.7-11.8-9-19.3-9s-14.5,3.3-19.3,9c-2.8,3.4-5.7,7-8.5,10.6V42.8
	c0-7.9-6.4-14.3-14.3-14.3H129c-7.9,0-14.3,6.4-14.3,14.3v53.4c0,0,0,0,0,0v15.7c0,7.9,6.4,14.3,14.3,14.3h56.5
	c-16.7,32.2-30.4,67-40.6,103.7c-3.1,11.1-5.9,22.4-8.4,33.9c-23.7,5.4-44.8,17.7-61.3,35.8c-17,18.8-27.4,42-29.9,67.2
	c-0.4,4.2,1,8.4,3.8,11.5c2.8,3.2,6.9,5,11.2,5H122c0,0.6,0,1.1-0.1,1.7c-0.2,6.8,2.3,13.3,7.1,18.1c4.7,4.9,11.1,7.6,17.9,7.6h20.4
	L153,437.7c-2.5,4.7-2.3,10.2,0.4,14.7s7.5,7.2,12.8,7.2h11.7v8.8c0,8.3,6.7,15,15,15h15.5c8.3,0,15-6.7,15-15v-8.8h64.9v8.8
	c0,8.3,6.7,15,15,15h15.5c8.3,0,15-6.7,15-15v-8.8h11.7c5.3,0,10.1-2.7,12.8-7.2s2.9-10.1,0.4-14.7l-14.3-27.1H365
	c6.8,0,13.2-2.7,17.9-7.6c4.8-4.9,7.3-11.3,7.1-18.1c0-0.6,0-1.1-0.1-1.7h61.9c4.2,0,8.3-1.8,11.2-5
	C465.8,375.1,467.2,370.9,466.8,366.7z M244.4,54.3c2.9-3.5,7.1-5.4,11.6-5.4s8.7,2,11.6,5.4c5.2,6.3,11,13.7,17.1,22.2
	c-8.3,5.9-18.3,9.2-28.7,9.2c-10,0-19.6-3-27.8-8.6v-1.8C233.5,67.9,239,60.8,244.4,54.3L244.4,54.3z M218.2,111.8
	c0,0.6-0.1,1.2-0.3,1.7c-0.7,1.6-2.2,2.6-4,2.6H129c-2.4,0-4.3-1.9-4.3-4.3v-10.6h12.6c4,0,7.8-1.6,10.6-4.4l13.3-13.3
	c1-1,2.2-1.5,3.6-1.5h38.2c2,0,4-0.4,5.9-1.2c1.8-0.8,3.4-1.8,4.7-3.2l4.7-4.7L218.2,111.8L218.2,111.8z M129,38.5h84.9
	c2.4,0,4.3,1.9,4.3,4.3v16l-11.8,11.8c-0.4,0.4-1,0.8-1.5,1c-0.6,0.3-1.3,0.4-2,0.4h-38.2c-4,0-7.8,1.6-10.6,4.4l-13.3,13.3
	c-0.9,0.9-2.2,1.5-3.5,1.5h-12.6V42.8C124.7,40.4,126.6,38.5,129,38.5L129,38.5z M60.2,373.2c-1.4,0-2.8-0.6-3.7-1.7
	c-0.9-1-1.4-2.4-1.2-3.8c2.3-23,11.8-44.3,27.4-61.5c14-15.4,31.7-26.3,51.6-31.7c-6.3,31.8-10.2,64.7-11.8,98.6L60.2,373.2
	L60.2,373.2z M213.6,468.5c0,2.8-2.2,5-5,5h-15.5c-2.8,0-5-2.2-5-5v-8.8h25.5V468.5z M323.9,468.5c0,2.8-2.2,5-5,5h-15.5
	c-2.8,0-5-2.2-5-5v-8.8h25.5V468.5z M375.8,396c-2.9,2.9-6.7,4.5-10.8,4.5H222.4c-2.8,0-5,2.2-5,5s2.2,5,5,5h111l16.8,31.8
	c1.2,2.3,0.3,4.2-0.1,4.9s-1.7,2.4-4.3,2.4H166.3c-2.5,0-3.8-1.7-4.3-2.4s-1.3-2.7-0.1-4.9l16.8-31.8h15.6c2.8,0,5-2.2,5-5
	s-2.2-5-5-5H147c-4.1,0-7.9-1.6-10.8-4.5c-2.9-2.9-4.4-6.8-4.2-10.9c1.5-53.4,9.1-104.7,22.5-152.5c10.6-37.8,24.8-73.5,42.3-106.4
	h17.1c5.4,0,10.2-3,12.6-7.5c1.1-2,1.7-4.4,1.7-6.8v-23c8.5,4.5,18,6.9,27.8,6.9c12.4,0,24.4-3.9,34.4-11
	c17.1,25.3,36.2,59.2,52.4,102.5c-1.2,2.2-1.9,4.7-1.9,7.3v29.1c0,2.8,2.2,5,5,5s5-2.2,5-5v-29.1c0-2.8,2.2-5,5-5h77.9
	c2.8,0,5,2.2,5,5v77.9c0,2.8-2.2,5-5,5h-77.9c-2.8,0-5-2.2-5-5v-20.8c0-2.8-2.2-5-5-5s-5,2.2-5,5v20.8c0,8.3,6.7,15,15,15h14.3
	c5.6,31.4,9,64.2,9.9,97.6C380.2,389.2,378.7,393.1,375.8,396L375.8,396z M455.6,371.5c-1,1.1-2.3,1.7-3.7,1.7h-62.2
	c-1.3-29.2-4.4-58-9.3-85.7h26.8c28.2,17.9,46.4,47.1,49.7,80.2C457,369.1,456.5,370.5,455.6,371.5z"/>
<path class="st12" d="M256,130.3c-27.6,0-50.1,22.5-50.1,50.1s22.5,50.1,50.1,50.1s50.1-22.5,50.1-50.1
	C306.1,152.8,283.6,130.3,256,130.3z M256,220.6c-22.1,0-40.1-18-40.1-40.1c0-22.1,18-40.1,40.1-40.1s40.1,18,40.1,40.1
	C296.1,202.6,278.1,220.6,256,220.6z"/>
<path class="st8" d="M228.1,185.5c-2.8,0-5-2.2-5-5c0-9.6,3.7-18.6,10.5-25.4c2-2,5.1-2,7.1,0s2,5.1,0,7.1
	c-4.9,4.9-7.6,11.4-7.6,18.3C233.1,183.2,230.8,185.5,228.1,185.5L228.1,185.5z"/>
</svg>
