<svg id="Capa_1" enable-background="new 0 0 512 512" height="512" viewBox="0 0 512 512" width="512" xmlns="http://www.w3.org/2000/svg" xmlns:xlink="http://www.w3.org/1999/xlink"><linearGradient id="SVGID_1_" gradientUnits="userSpaceOnUse" x1="53.976" x2="458.024" y1="256" y2="256"><stop offset=".0485" stop-color="#ffdbed"/><stop offset=".9993" stop-color="#d2deff"/></linearGradient><g><g><g><path d="m170.091.39c-68.06 4.435-134.218 61.127-111.591 135.073 18.265 59.691 84.702 87.73 134.671 115.676 47.928 26.805 98.6 60.229 112.037 117.192 9.247 39.199-2.084 84.916 22.012 117.187 42.331 56.693 124.077 13.634 130.314-47.258 5.176-50.542-31.51-94.701-65.828-132.165-33.267-36.317-70.462-71.374-99.992-110.843-27.345-36.55-41.639-81.985-5.379-118.188 8.145-8.132 17.848-16.505 14.872-29.734-9.77-43.394-97.817-49.109-131.116-46.94z" fill="url(#SVGID_1_)"/></g><g><g opacity=".1"><path d="m402.167 81.503c-.001 0-.002 0-.002 0v-.003l-.017.005c-.716.003-1.42.198-2.111.557l-108.637 28.676c-6.843 1.806-12.172 6.782-14.619 13.093-6.194-3.312-13.266-5.195-20.781-5.195s-14.587 1.883-20.781 5.195c-2.447-6.311-7.776-11.287-14.619-13.093l-108.636-28.676c-.691-.359-1.396-.554-2.111-.557l-.017-.005v.003c-.001 0-.002 0-.002 0-8.945 0-16.198 28.708-16.198 64.129s7.253 64.136 16.198 64.136h.002v.002l.011-.003c.719-.002 1.427-.198 2.121-.56l104.161-27.495c3.508 7.371 9.001 13.614 15.785 18.043l-16.659 74.641h-.598c-2.762 0-5 2.238-5 5 0 2.209 1.442 4.062 3.428 4.723l-20.829 93.328h-.575c-2.762 0-5 2.238-5 5 0 2.201 1.431 4.049 3.407 4.717l-21.704 97.246c-.016.069-.022.139-.034.209-.01.057-.02.112-.028.169-.04.275-.059.55-.053.825.001.048.006.095.009.143.014.278.047.553.107.823.005.022.008.044.014.066.065.278.161.547.273.811.021.048.038.096.06.144.121.261.268.51.435.75.018.026.028.054.046.079.025.034.054.063.08.097.025.032.045.067.071.099.039.049.084.092.125.139.063.073.126.146.192.214.067.069.137.133.207.198.074.068.147.136.224.199.069.056.141.106.212.158.084.061.167.124.254.179.073.047.15.087.225.13.089.05.177.103.269.148.086.042.177.076.265.114.084.035.167.074.253.105.115.041.233.072.35.104.064.017.126.04.19.055.163.038.329.065.496.087.021.003.043.009.064.011.189.022.38.033.573.033h165.473c.193 0 .384-.012.573-.033.022-.002.043-.008.064-.011.167-.021.333-.049.496-.087.064-.015.127-.038.19-.055.118-.032.236-.063.35-.104.086-.031.169-.07.253-.105.089-.037.179-.071.265-.114.092-.045.179-.097.269-.148.075-.043.152-.083.225-.13.087-.055.17-.118.254-.179.071-.052.143-.102.212-.158.077-.063.151-.131.224-.199.07-.065.14-.129.207-.198.066-.068.129-.141.192-.214.041-.047.086-.09.125-.139.026-.032.046-.067.071-.099.026-.033.055-.063.08-.097.018-.025.028-.054.046-.079.166-.239.314-.489.435-.75.022-.048.04-.096.06-.144.112-.263.207-.532.273-.809.005-.023.009-.046.014-.069.06-.27.092-.545.106-.822.002-.048.008-.095.009-.143.006-.275-.013-.55-.053-.825-.008-.057-.018-.113-.028-.169-.012-.07-.019-.14-.034-.209l-21.704-97.246c1.975-.668 3.407-2.516 3.407-4.717 0-2.762-2.238-5-5-5h-.575l-9.788-43.857c5.157-2.162 8.781-7.257 8.781-13.2 0-7.903-6.406-14.309-14.309-14.309-.204 0-.403.022-.605.031l-4.908-21.993c1.987-.662 3.428-2.514 3.428-4.723 0-2.762-2.238-5-5-5h-.598l-16.659-74.641c6.784-4.429 12.277-10.671 15.785-18.043l104.161 27.495c.694.361 1.402.557 2.121.56l.011.003v-.002h.002c8.945 0 16.198-28.716 16.198-64.136s-7.25-64.129-16.195-64.129zm-165.156 141.324 12.369 14.249-20.93 24.111zm-29.218 154.621 48.207-51.494 48.207 51.494zm92.5 10-44.293 32.037-44.293-32.037zm-69.501-103.052h50.416l-25.208 26.927zm-.568-10 25.776-29.693 25.776 29.694h-51.552zm-8.143 15.327 27.07 28.916-44.017 47.018zm-22.593 101.23 47.98 34.704-66.452 48.065zm-10.779 89.547 67.291-48.672 67.291 48.672zm123.803-89.547 18.472 82.769-66.452-48.065zm-18.039-80.828c-2.682 2.601-4.354 6.236-4.354 10.266 0 6.274 4.044 11.592 9.663 13.523l7.084 31.742-44.017-47.018 27.07-28.916zm-31.853-73.049 12.369-14.249 8.561 38.36zm9.679-26.305c-.158.141-.322.274-.465.438l-15.834 18.24-15.834-18.24c-.143-.164-.307-.297-.465-.438l1.437-6.436c4.645 1.662 9.646 2.573 14.862 2.573s10.218-.911 14.862-2.573z" fill="#2626bc"/><g><g><g><path d="m462.452 153.442c-.374 0-.751-.042-1.128-.13l-17.826-4.12c-2.69-.621-4.367-3.307-3.745-5.997s3.309-4.367 5.997-3.745l13.84 3.198.856-1.886c.964-2.122 3.269-3.299 5.55-2.832l20.809 4.235c2.706.551 4.453 3.19 3.902 5.896-.551 2.705-3.193 4.454-5.896 3.902l-16.906-3.44-.901 1.984c-.826 1.817-2.626 2.935-4.552 2.935z" fill="#2626bc"/></g><g><g><path d="m444.629 128.555c-1.668 0-3.298-.834-4.246-2.353-1.463-2.342-.749-5.427 1.593-6.89l12.049-7.524-.729-1.939c-.818-2.183-.021-4.641 1.923-5.927l17.709-11.719c2.301-1.524 5.404-.893 6.929 1.411 1.523 2.303.893 5.404-1.411 6.929l-14.388 9.521.767 2.042c.836 2.229-.015 4.737-2.033 5.998l-15.519 9.691c-.824.514-1.74.76-2.644.76z" fill="#2626bc"/></g><g><path d="m475.682 199.899c-.947 0-1.905-.27-2.754-.831l-17.709-11.719c-1.944-1.286-2.741-3.744-1.923-5.927l.729-1.939-12.049-7.524c-2.342-1.463-3.056-4.548-1.593-6.89 1.462-2.341 4.548-3.054 6.89-1.593l15.519 9.691c2.019 1.261 2.869 3.77 2.033 5.998l-.767 2.042 14.388 9.521c2.304 1.524 2.935 4.626 1.411 6.929-.962 1.454-2.553 2.241-4.175 2.242z" fill="#2626bc"/></g></g></g><g><g><path d="m49.548 153.442c-1.926 0-3.726-1.118-4.551-2.934l-.901-1.984-16.906 3.44c-2.705.553-5.346-1.196-5.896-3.902s1.196-5.346 3.902-5.896l20.809-4.235c2.281-.467 4.585.709 5.55 2.832l.856 1.886 13.84-3.198c2.688-.625 5.375 1.055 5.997 3.745s-1.055 5.376-3.745 5.997l-17.826 4.12c-.377.087-.756.129-1.129.129z" fill="#2626bc"/></g><g><g><path d="m67.371 128.555c-.904 0-1.82-.246-2.644-.76l-15.519-9.691c-2.019-1.261-2.869-3.77-2.033-5.998l.767-2.042-14.388-9.521c-2.304-1.524-2.935-4.626-1.411-6.929s4.628-2.934 6.929-1.411l17.709 11.719c1.944 1.286 2.741 3.744 1.923 5.927l-.729 1.939 12.049 7.524c2.342 1.463 3.056 4.548 1.593 6.89-.948 1.519-2.578 2.353-4.246 2.353z" fill="#2626bc"/></g><g><path d="m36.318 199.899c-1.622 0-3.213-.788-4.175-2.242-1.523-2.303-.893-5.404 1.411-6.929l14.388-9.521-.767-2.042c-.836-2.229.015-4.737 2.033-5.998l15.519-9.691c2.342-1.462 5.428-.749 6.89 1.593 1.463 2.342.749 5.427-1.593 6.89l-12.049 7.524.729 1.939c.818 2.183.021 4.641-1.923 5.927l-17.709 11.719c-.848.562-1.806.831-2.754.831z" fill="#2626bc"/></g></g></g></g><circle cx="256" cy="59.75" fill="#2626bc" r="14.25"/></g><g><g><g><path d="m275.307 107.629v28.012c0 9.809 6.608 18.388 16.092 20.891l110.765 29.238v-128.27l-110.764 29.238c-9.485 2.504-16.093 11.082-16.093 20.891z" fill="#ff5ba8"/><g><path d="m313.017 81.033v81.206l-21.614-5.704c-9.485-2.506-16.097-11.084-16.097-20.894v-28.01c0-9.81 6.612-18.387 16.097-20.894l10.191-2.686z" fill="#b7c5ff"/></g><ellipse cx="402.165" cy="121.635" fill="#6583fe" rx="16.2" ry="64.135"/><path d="m418.365 121.632c0 35.421-7.253 64.136-16.198 64.136-3.551 0-6.835-4.516-9.5-12.172-4.062-11.653-6.705-30.588-6.705-51.965s2.643-40.311 6.705-51.957c2.665-7.656 5.949-12.172 9.5-12.172 8.945.001 16.198 28.709 16.198 64.13z" fill="#6583fe"/><path d="m401.958 121.635c0 8.586-6.889 15.583-15.493 15.842-.327-5.066-.498-10.375-.498-15.842s.172-10.776.498-15.842c8.604.26 15.493 7.256 15.493 15.842z" fill="#b7c5ff"/></g></g><g><g><path d="m236.693 107.629v28.012c0 9.809-6.608 18.388-16.092 20.891l-110.766 29.238v-128.27l110.765 29.238c9.485 2.504 16.093 11.082 16.093 20.891z" fill="#ff5ba8"/><g><path d="m198.983 81.033v81.206l21.614-5.704c9.485-2.506 16.097-11.084 16.097-20.894v-28.01c0-9.81-6.612-18.387-16.097-20.894l-10.191-2.686z" fill="#b7c5ff"/></g><ellipse cx="109.835" cy="121.635" fill="#6583fe" rx="16.2" ry="64.135"/><path d="m93.635 121.632c0 35.421 7.253 64.136 16.198 64.136 3.551 0 6.835-4.516 9.5-12.172 4.062-11.653 6.705-30.588 6.705-51.965s-2.643-40.311-6.705-51.957c-2.665-7.656-5.949-12.172-9.5-12.172-8.945.001-16.198 28.709-16.198 64.13z" fill="#6583fe"/><path d="m110.042 121.635c0 8.586 6.889 15.583 15.493 15.842.327-5.066.498-10.375.498-15.842s-.172-10.776-.498-15.842c-8.604.26-15.493 7.256-15.493 15.842z" fill="#b7c5ff"/></g></g></g><circle cx="256" cy="138.772" fill="#97ffd2" r="44.136"/><circle cx="256" cy="138.772" fill="#00d890" r="19.307"/><circle cx="256" cy="35.75" fill="#6583fe" r="14.25"/><circle cx="304.428" cy="296.391" fill="#ff5ba8" r="14.309"/><path d="m126.038 288.497c-2.762 0-5-2.238-5-5 0-3.309-2.691-6-6-6-2.762 0-5-2.238-5-5s2.238-5 5-5c3.309 0 6-2.691 6-6 0-2.762 2.238-5 5-5s5 2.238 5 5c0 3.309 2.691 6 6 6 2.762 0 5 2.238 5 5s-2.238 5-5 5c-3.309 0-6 2.691-6 6 0 2.762-2.238 5-5 5z" fill="#6583fe"/><path d="m381.227 423.803c-2.762 0-5-2.238-5-5 0-3.309-2.691-6-6-6-2.762 0-5-2.238-5-5s2.238-5 5-5c3.309 0 6-2.691 6-6 0-2.762 2.238-5 5-5s5 2.238 5 5c0 3.309 2.691 6 6 6 2.762 0 5 2.238 5 5s-2.238 5-5 5c-3.309 0-6 2.691-6 6 0 2.761-2.239 5-5 5z" fill="#ff7eb8"/><path d="m196.263 51.75c-2.762 0-5-2.238-5-5 0-3.309-2.691-6-6-6-2.762 0-5-2.238-5-5s2.238-5 5-5c3.309 0 6-2.691 6-6 0-2.762 2.238-5 5-5s5 2.238 5 5c0 3.309 2.691 6 6 6 2.762 0 5 2.238 5 5s-2.238 5-5 5c-3.309 0-6 2.691-6 6 0 2.762-2.239 5-5 5z" fill="#01eca5"/><path d="m147.794 335.085c-2.762 0-5-2.238-5-5 0-3.309-2.691-6-6-6-2.762 0-5-2.238-5-5s2.238-5 5-5c3.309 0 6-2.691 6-6 0-2.762 2.238-5 5-5s5 2.238 5 5c0 3.309 2.691 6 6 6 2.762 0 5 2.238 5 5s-2.238 5-5 5c-3.309 0-6 2.691-6 6 0 2.762-2.238 5-5 5z" fill="#ff7eb8"/><path d="m381.227 264.55c-1.279 0-2.56-.488-3.535-1.465l-11-11c-1.953-1.952-1.953-5.118 0-7.07l11-11c1.951-1.953 5.119-1.953 7.07 0l11 11c1.953 1.952 1.953 5.118 0 7.07l-11 11c-.976.977-2.256 1.465-3.535 1.465zm-3.929-16 3.929 3.929 3.929-3.929-3.929-3.929z" fill="#01eca5"/></g></g><g fill="#2626bc"><path d="m237.481 93.271c-3.568-5.585-9.078-9.644-15.604-11.366l-108.128-28.543c-1.086-.495-2.244-.772-3.472-.829-.097-.009-.193-.018-.29-.021-.052-.001-.1-.011-.152-.011-16.735 0-21.2 43.457-21.2 69.135 0 25.663 4.46 69.084 21.171 69.135.009 0 .017.002.026.002.23 0 .463-.02.696-.052 1.136-.083 2.214-.35 3.227-.812l99.842-26.355c4.179 7.123 10.092 13.107 17.166 17.36l-15.508 69.485h-.598c-2.762 0-5 2.238-5 5 0 2.209 1.442 4.062 3.428 4.723l-20.829 93.328h-.575c-2.762 0-5 2.238-5 5 0 2.201 1.431 4.049 3.407 4.717l-21.704 97.246c-.016.069-.022.139-.034.209-.01.057-.02.112-.028.169-.04.275-.059.55-.053.825.001.048.006.095.009.143.014.278.047.553.107.823.005.022.008.044.014.066.065.278.161.547.273.811.021.048.038.096.06.144.121.261.268.51.435.75.018.026.028.054.046.079.025.034.054.063.08.097.025.032.045.067.071.099.039.049.084.092.125.139.063.073.126.146.192.214.067.069.137.133.207.197.074.068.147.136.224.199.069.056.141.106.212.158.084.061.167.124.254.179.073.047.15.087.225.13.089.05.177.103.269.148.086.042.177.076.265.114.084.035.167.074.253.105.115.041.233.072.35.104.064.017.126.04.19.055.163.038.329.065.496.087.021.003.043.008.064.011.189.022.38.033.573.033h165.473c.193 0 .384-.012.573-.033.022-.003.043-.008.064-.011.167-.021.333-.049.496-.087.064-.015.127-.037.19-.055.118-.032.236-.063.35-.104.086-.03.169-.07.253-.105.089-.037.179-.071.265-.114.092-.045.179-.097.269-.148.075-.043.152-.083.225-.13.087-.055.17-.118.254-.179.071-.052.143-.102.212-.158.077-.063.151-.131.224-.199.07-.065.14-.129.207-.197.066-.068.129-.141.192-.214.041-.047.086-.09.125-.139.026-.032.046-.067.071-.099.026-.034.055-.063.08-.097.018-.025.028-.054.046-.079.166-.239.314-.489.435-.75.022-.048.04-.096.06-.144.112-.263.207-.532.273-.809.005-.023.009-.046.014-.069.06-.27.092-.545.106-.822.002-.048.008-.095.009-.143.006-.274-.013-.55-.053-.825-.008-.057-.018-.113-.028-.169-.012-.07-.019-.14-.034-.209l-21.704-97.246c1.976-.668 3.407-2.516 3.407-4.717 0-2.762-2.238-5-5-5h-.575l-8.692-38.944c7.389-2.712 12.685-9.796 12.685-18.113 0-10.647-8.662-19.31-19.31-19.31-.577 0-1.144.037-1.708.086l-3.805-17.049c1.986-.662 3.428-2.514 3.428-4.723 0-2.762-2.238-5-5-5h-.598l-15.508-69.484c14.305-8.599 23.899-24.268 23.899-42.141 0-16.957-8.635-31.934-21.738-40.769 2.228-3.139 5.471-5.425 9.278-6.431l95.936-25.324c-5.793 14.927-7.647 38.845-7.647 55.386 0 16.542 1.854 40.46 7.647 55.387l-57.578-15.199c-2.674-.71-5.406.889-6.11 3.558-.705 2.67.888 5.406 3.558 6.11l69.798 18.424c1.206.55 2.488.849 3.853.854.012 0 .024.002.036.002.009 0 .017-.002.026-.002 16.711-.051 21.171-43.472 21.171-69.135 0-25.678-4.465-69.135-21.2-69.135-.075 0-.147.007-.221.009-.031.001-.061.002-.092.004-1.26.042-2.451.33-3.573.842l-108.153 28.55c-6.527 1.723-12.037 5.782-15.605 11.367-4.246-1.734-8.781-2.901-13.519-3.382v-35.57c8.194-2.21 14.25-9.686 14.25-18.568 0-10.614-8.636-19.25-19.25-19.25s-19.25 8.636-19.25 19.25c0 8.882 6.056 16.358 14.25 18.568v35.57c-4.738.482-9.273 1.648-13.519 3.383zm175.884 28.364c0 15.659-1.456 30.604-4.099 42.079-2.699 11.715-5.783 15.99-7.018 16.908l-.253-.067c-1.288-1.047-4.294-5.39-6.932-16.841-2.643-11.476-4.099-26.42-4.099-42.079s1.456-30.604 4.099-42.078c2.638-11.45 5.644-15.794 6.932-16.841l.253-.067c1.235.917 4.319 5.193 7.018 16.908 2.643 11.474 4.099 26.419 4.099 42.078zm-289.945 55.379c4.65-12.002 6.406-28.925 7.046-38.345.188-2.755-1.895-5.141-4.649-5.327-2.757-.181-5.14 1.896-5.327 4.649-1.809 26.617-7.416 40.3-10.414 42.545l-.323.085c-1.235-.916-4.32-5.192-7.019-16.908-2.643-11.477-4.099-26.42-4.099-42.079s1.456-30.603 4.099-42.078c2.699-11.716 5.783-15.991 7.019-16.908l.322.085c2.981 2.237 8.567 15.837 10.396 42.281.19 2.755 2.579 4.824 5.333 4.644 2.755-.19 4.834-2.578 4.644-5.333-.647-9.351-2.409-26.136-7.034-38.07l95.912 25.317c3.807 1.005 7.05 3.292 9.278 6.431-13.103 8.834-21.738 23.811-21.738 40.768 0 5.433.9 10.657 2.535 15.547zm160.131 60.173-20.93-24.111 12.369-14.249zm-36.083 164.47-66.452 48.065 18.472-82.769zm-35.761-38.209h88.586l-44.293 32.037zm44.293 44.38 67.291 48.672h-134.582zm8.532-6.171 47.98-34.704 18.472 82.769zm-56.739-48.209 48.207-51.494 48.207 51.494zm-2.659-11.792 16.947-75.933 27.07 28.916zm25.658-81.26h50.416l-25.208 26.927zm50.984-10h-51.552l25.776-29.693zm-53.327-13.209 8.561-38.36 12.369 14.249zm85.288 59.205c0 5.133-4.176 9.309-9.31 9.309s-9.31-4.176-9.31-9.309c0-5.134 4.176-9.31 9.31-9.31s9.31 4.176 9.31 9.31zm-12.735 18.986 5.865 26.279-44.017-47.018 27.07-28.916 3.336 14.948c-4.916 3.504-8.137 9.237-8.137 15.721-.001 9.475 6.867 17.362 15.883 18.986zm-28.704-128.607c-.158.141-.322.274-.464.438l-15.834 18.24-15.834-18.24c-.143-.165-.307-.297-.465-.438l.343-1.537c5.007 1.724 10.371 2.674 15.956 2.674s10.949-.95 15.955-2.674zm22.838-48c0 21.579-17.557 39.136-39.136 39.136s-39.136-17.557-39.136-39.136 17.557-39.135 39.136-39.135 39.136 17.556 39.136 39.135zm-48.386-103.021c0-5.101 4.149-9.25 9.25-9.25s9.25 4.149 9.25 9.25-4.149 9.25-9.25 9.25-9.25-4.149-9.25-9.25z"/><path d="m460.446 116.763-.856 1.886-13.84-3.198c-2.688-.622-5.375 1.055-5.997 3.745s1.055 5.376 3.745 5.997l17.826 4.12c.377.088.754.13 1.128.13 1.926 0 3.726-1.118 4.551-2.934l.901-1.984 16.906 3.441c2.703.548 5.346-1.196 5.896-3.902.551-2.705-1.196-5.346-3.902-5.896l-20.809-4.236c-2.28-.469-4.585.708-5.549 2.831z"/><path d="m472.928 68.204-17.709 11.718c-1.944 1.286-2.741 3.744-1.923 5.927l.729 1.939-12.049 7.524c-2.342 1.463-3.056 4.548-1.593 6.89.948 1.519 2.578 2.353 4.246 2.353.904 0 1.82-.246 2.644-.76l15.519-9.691c2.019-1.261 2.869-3.77 2.033-5.998l-.767-2.041 14.388-9.521c2.304-1.523 2.935-4.626 1.411-6.929-1.525-2.303-4.628-2.934-6.929-1.411z"/><path d="m479.856 173.657c1.523-2.303.893-5.404-1.411-6.929l-14.388-9.521.767-2.042c.836-2.229-.015-4.737-2.033-5.998l-15.519-9.691c-2.342-1.461-5.428-.748-6.89 1.593-1.463 2.342-.749 5.427 1.593 6.89l12.049 7.524-.729 1.939c-.818 2.183-.021 4.641 1.923 5.927l17.709 11.719c.849.562 1.807.831 2.754.831 1.623-.001 3.214-.788 4.175-2.242z"/><path d="m27.189 127.966 16.906-3.441.901 1.984c.825 1.815 2.625 2.934 4.551 2.934.373 0 .752-.042 1.128-.13l17.826-4.12c2.69-.621 4.367-3.307 3.745-5.997s-3.309-4.372-5.997-3.745l-13.84 3.198-.856-1.886c-.965-2.123-3.269-3.3-5.55-2.832l-20.809 4.236c-2.706.551-4.453 3.191-3.902 5.896.552 2.707 3.192 4.452 5.897 3.903z"/><path d="m33.555 76.544 14.388 9.521-.767 2.041c-.836 2.229.015 4.737 2.033 5.998l15.519 9.691c.823.514 1.739.76 2.644.76 1.668 0 3.298-.834 4.246-2.353 1.463-2.342.749-5.427-1.593-6.89l-12.049-7.524.729-1.939c.818-2.183.021-4.641-1.923-5.927l-17.71-11.718c-2.301-1.521-5.404-.892-6.929 1.411-1.523 2.303-.892 5.406 1.412 6.929z"/><path d="m32.144 173.657c.962 1.454 2.553 2.242 4.175 2.242.947 0 1.905-.27 2.754-.831l17.709-11.719c1.944-1.286 2.741-3.744 1.923-5.927l-.729-1.939 12.049-7.524c2.342-1.463 3.056-4.548 1.593-6.89-1.462-2.342-4.548-3.055-6.89-1.593l-15.519 9.691c-2.019 1.261-2.869 3.77-2.033 5.998l.767 2.042-14.388 9.521c-2.304 1.525-2.935 4.626-1.411 6.929z"/></g></g></svg>