<?xml version="1.0" encoding="utf-8"?>
<!-- Generator: Adobe Illustrator 25.0.1, SVG Export Plug-In . SVG Version: 6.00 Build 0)  -->
<svg version="1.1" id="Capa_1" xmlns="http://www.w3.org/2000/svg" xmlns:xlink="http://www.w3.org/1999/xlink" x="0px" y="0px"
	 viewBox="0 0 512 512" style="enable-background:new 0 0 512 512;" xml:space="preserve">
<style type="text/css">
	.st0{opacity:0.5;fill:#DBEAFE;}
	.st1{opacity:0.1;fill:#2626BC;enable-background:new    ;}
	.st2{fill:#8399FE;}
	.st3{fill:#FFFFFF;}
	.st4{fill:#6583FE;}
	.st5{fill:#CCFBF1;}
	.st6{fill:#B7C5FF;}
	.st7{fill:#DBEAFE;}
	.st8{fill:#2626BC;}
	.st9{fill:#97FFD2;}
	.st10{fill:#02FFB3;}
	.st11{fill:#FFE266;}
</style>
<g>
	<path class="st0" d="M382.6,171.5c-0.2,0-0.4,0-0.6,0c-32-0.1-62.4-13.8-83.4-38c-31.4-36-77.6-58.6-129.1-58.4
		C76,75.6-1.2,154.1,0,247.6c1.2,93,77,168,170.2,168c26.3,0,51.3-6,73.5-16.7c19.2-9.2,42.1-6.8,59,6.2
		c21.9,16.7,49.2,26.7,78.8,26.8c71.4,0.1,130-58,130.4-129.4C512.4,230.4,454.6,171.9,382.6,171.5L382.6,171.5z"/>
	<path class="st1" d="M279,356c2.8,0,5-2.2,5-5v-8.7c0-2.8-2.2-5-5-5h-1V321c0-5.5-4.5-10-10-10h-24c-5.5,0-10,4.5-10,10v16.4h-1
		c-2.8,0-5,2.2-5,5v8.7c0,2.8,2.2,5,5,5h1v77.1h-1c-2.8,0-5,2.2-5,5v8.7c0,2.8,2.2,5,5,5h1v16c0,5.5,4.5,10,10,10h24
		c5.5,0,10-4.5,10-10v-16h1c2.8,0,5-2.2,5-5v-8.7c0-2.8-2.2-5-5-5h-1V356L279,356z"/>
	<path class="st1" d="M482.5,108.3H387c-15.7-57.6-68.4-100-131-100s-115.3,42.4-131,100H29.5c-5.5,0-10,4.5-10,10v49
		c0,5.5,4.5,10,10,10h94.8c14.8,58.9,68.1,102.5,131.7,102.5s116.8-43.6,131.7-102.5h94.8c5.5,0,10-4.5,10-10v-49
		C492.5,112.8,488,108.3,482.5,108.3z"/>
	<circle class="st2" cx="256" cy="165.1" r="135.8"/>
	<path class="st3" d="M492.5,139.3v49c0,5.5-4.5,10-10,10h-453c-5.5,0-10-4.5-10-10v-49c0-5.5,4.5-10,10-10h453
		C488,129.3,492.5,133.8,492.5,139.3z"/>
	<path class="st4" d="M384.2,209.8c4.9-14,7.6-29.1,7.6-44.8c0-7.3-0.6-14.5-1.7-21.5H121.9c-1.1,7-1.7,14.2-1.7,21.5
		c0,15.7,2.7,30.8,7.6,44.8H384.2z"/>
	<path class="st5" d="M391.8,165.1c0,11.5-1.4,22.6-4.1,33.2H124.3c-2.7-10.6-4.1-21.8-4.1-33.2c0-12.4,1.7-24.4,4.8-35.8h262
		C390.1,140.7,391.8,152.7,391.8,165.1L391.8,165.1z"/>
	<path class="st6" d="M87.6,198.3H29.5c-5.5,0-10-4.5-10-10v-49c0-5.5,4.5-10,10-10h58.1V198.3z"/>
	<path class="st7" d="M278,342v146.7c0,5.5-4.5,10-10,10h-24c-5.5,0-10-4.5-10-10V342c0-5.5,4.5-10,10-10h24
		C273.5,332,278,336.5,278,342z"/>
	<path class="st8" d="M234,368.8h44v18.6h-44V368.8z"/>
	<path class="st4" d="M234,464.6h44v18.7h-44V464.6z"/>
	<path class="st9" d="M279,377h-46c-2.8,0-5-2.2-5-5v-8.7c0-2.8,2.2-5,5-5h46c2.8,0,5,2.2,5,5v8.7C284,374.8,281.8,377,279,377
		L279,377z"/>
	<path class="st9" d="M279,472.7h-46c-2.8,0-5-2.2-5-5v-8.7c0-2.8,2.2-5,5-5h46c2.8,0,5,2.2,5,5v8.7
		C284,470.5,281.8,472.7,279,472.7z"/>
	<g>
		<path class="st10" d="M214.7,182.3c-1.8,0-3.5-1-4.4-2.6l-4.2-7.7l-4.2,7.7c-1,1.8-2.9,2.8-4.8,2.6c-2-0.2-3.7-1.5-4.3-3.4
			l-8-24.5c-0.9-2.6,0.6-5.4,3.2-6.3c2.6-0.9,5.4,0.6,6.3,3.2l4.4,13.5l3.1-5.6c0.9-1.6,2.6-2.6,4.4-2.6s3.5,1,4.4,2.6l3.1,5.6
			l4.4-13.5c0.9-2.6,3.7-4.1,6.3-3.2c2.6,0.9,4.1,3.7,3.2,6.3l-8,24.5c-0.6,1.9-2.3,3.2-4.3,3.4C215,182.3,214.8,182.3,214.7,182.3
			L214.7,182.3z"/>
		<path class="st10" d="M264.6,182.3c-1.8,0-3.5-1-4.4-2.6L256,172l-4.2,7.7c-1,1.8-2.9,2.8-4.8,2.6c-2-0.2-3.7-1.5-4.3-3.4l-8-24.5
			c-0.9-2.6,0.6-5.4,3.2-6.3c2.6-0.9,5.4,0.6,6.3,3.2l4.4,13.5l3.1-5.6c0.9-1.6,2.6-2.6,4.4-2.6s3.5,1,4.4,2.6l3.1,5.6l4.4-13.5
			c0.9-2.6,3.7-4.1,6.3-3.2c2.6,0.9,4.1,3.7,3.2,6.3l-8,24.5c-0.6,1.9-2.3,3.2-4.3,3.4C264.9,182.3,264.7,182.3,264.6,182.3
			L264.6,182.3z"/>
		<path class="st10" d="M314.5,182.3c-1.8,0-3.5-1-4.4-2.6l-4.2-7.7l-4.2,7.7c-1,1.8-2.9,2.8-4.8,2.6c-2-0.2-3.7-1.5-4.3-3.4
			l-8-24.5c-0.9-2.6,0.6-5.4,3.2-6.3c2.6-0.9,5.4,0.6,6.3,3.2l4.4,13.5l3.1-5.6c0.9-1.6,2.6-2.6,4.4-2.6s3.5,1,4.4,2.6l3.1,5.6
			l4.4-13.5c0.9-2.6,3.7-4.1,6.3-3.2c2.6,0.9,4.1,3.7,3.2,6.3l-8,24.5c-0.6,1.9-2.3,3.2-4.3,3.4
			C314.8,182.3,314.7,182.3,314.5,182.3L314.5,182.3z"/>
	</g>
	<g>
		<path class="st8" d="M256,274.9c37.9,0,72.6-19.1,92.9-51.2c1.5-2.3,0.8-5.4-1.6-6.9c-2.3-1.5-5.4-0.8-6.9,1.6
			c-18.4,29.2-50,46.6-84.4,46.6s-66-17.4-84.4-46.6c-1.5-2.3-4.6-3-6.9-1.6c-2.3,1.5-3,4.6-1.6,6.9
			C183.4,255.8,218.1,274.9,256,274.9z"/>
		<path class="st8" d="M348.9,106.4c-20.3-32.1-55-51.2-92.9-51.2s-72.6,19.1-92.9,51.2c-1.5,2.3-0.8,5.4,1.6,6.9
			c2.3,1.5,5.4,0.8,6.9-1.6c18.4-29.2,50-46.6,84.4-46.6s66,17.4,84.4,46.6c1,1.5,2.6,2.3,4.2,2.3c0.9,0,1.8-0.3,2.7-0.8
			C349.7,111.8,350.4,108.8,348.9,106.4z"/>
		<path class="st8" d="M482.5,124.3h-91.8c-17.5-57.8-71.3-100-134.7-100s-117.2,42.2-134.7,100H29.5c-8.3,0-15,6.7-15,15v49
			c0,8.3,6.7,15,15,15h91c16.3,57.6,68.3,100.3,130.5,102.4V327h-7c-8.3,0-15,6.7-15,15v12.2c-3.5,1.5-6,5.1-6,9.2v8.7
			c0,4.1,2.5,7.6,6,9.2v68.8c-3.5,1.5-6,5.1-6,9.2v8.7c0,4.1,2.5,7.6,6,9.2v11.8c0,8.3,6.7,15,15,15h24c8.3,0,15-6.7,15-15v-11.8
			c3.5-1.5,6-5.1,6-9.2v-8.7c0-4.1-2.5-7.6-6-9.2v-45.4c0-2.8-2.2-5-5-5s-5,2.2-5,5v44.6h-34V382h40c5.5,0,10-4.5,10-10v-8.7
			c0-4.1-2.5-7.6-6-9.2V342c0-8.3-6.7-15-15-15h-7v-21.3c62.2-2.2,114.2-44.9,130.5-102.4h91c8.3,0,15-6.7,15-15v-49
			C497.5,131,490.8,124.3,482.5,124.3L482.5,124.3z M279,459.1l0,8.7l-46,0l0-8.7L279,459.1z M268,493.7h-24c-2.8,0-5-2.2-5-5v-11
			h34v11C273,491.5,270.8,493.7,268,493.7z M233,372l0-8.7l46,0l0,8.7L233,372z M273,342v11.4h-34V342c0-2.8,2.2-5,5-5h24
			C270.8,337,273,339.2,273,342L273,342z M256,34.3c57.9,0,107.1,37.8,124.3,90H131.7C148.9,72.1,198.1,34.3,256,34.3z M24.5,188.3
			v-49c0-2.8,2.2-5,5-5h53.1v59H29.5C26.7,193.3,24.5,191,24.5,188.3z M92.6,193.3v-59h26c-2.2,9.9-3.4,20.2-3.4,30.8
			c0,9.7,1,19.1,2.8,28.2L92.6,193.3z M256,295.8c-72.1,0-130.8-58.7-130.8-130.8c0-10.6,1.3-20.9,3.7-30.8h254.2
			c2.4,9.9,3.7,20.2,3.7,30.8c0,9.7-1.1,19.1-3.1,28.2H151.8c-2.8,0-5,2.2-5,5s2.2,5,5,5h229.3C364.7,256.8,314.8,295.8,256,295.8
			L256,295.8z M487.5,188.3c0,2.8-2.2,5-5,5h-88.6c1.9-9.1,2.8-18.6,2.8-28.2c0-10.6-1.2-20.9-3.4-30.8h89.1c2.8,0,5,2.2,5,5V188.3z
			"/>
		<path class="st10" d="M68.8,149.7c-6-6-15.8-6-21.8,0c-4.8,4.8-5.7,11.9-2.9,17.7l-7.1,7.1c-2,2-2,5.1,0,7.1c1,1,2.3,1.5,3.5,1.5
			s2.6-0.5,3.5-1.5l7.1-7.1c2.1,1,4.4,1.6,6.8,1.6c3.9,0,7.9-1.5,10.9-4.5C74.8,165.5,74.8,155.7,68.8,149.7L68.8,149.7z
			 M61.7,164.4c-2.1,2.1-5.6,2.1-7.7,0s-2.1-5.6,0-7.7c1.1-1.1,2.4-1.6,3.8-1.6s2.8,0.5,3.8,1.6C63.8,158.9,63.8,162.3,61.7,164.4z"
			/>
	</g>
	<path class="st11" d="M380.8,333.8c-2.8,0-5-2.2-5-5c0-3.3-2.7-6-6-6c-2.8,0-5-2.2-5-5s2.2-5,5-5c3.3,0,6-2.7,6-6c0-2.8,2.2-5,5-5
		s5,2.2,5,5c0,3.3,2.7,6,6,6c2.8,0,5,2.2,5,5s-2.2,5-5,5c-3.3,0-6,2.7-6,6C385.8,331.5,383.5,333.8,380.8,333.8z"/>
	<path class="st9" d="M412.4,100.6c-2.8,0-5-2.2-5-5c0-3.3-2.7-6-6-6c-2.8,0-5-2.2-5-5s2.2-5,5-5c3.3,0,6-2.7,6-6c0-2.8,2.2-5,5-5
		s5,2.2,5,5c0,3.3,2.7,6,6,6c2.8,0,5,2.2,5,5s-2.2,5-5,5c-3.3,0-6,2.7-6,6C417.4,98.4,415.1,100.6,412.4,100.6z"/>
	<path class="st11" d="M87.6,261.4c-2.8,0-5-2.2-5-5c0-3.3-2.7-6-6-6c-2.8,0-5-2.2-5-5s2.2-5,5-5c3.3,0,6-2.7,6-6c0-2.8,2.2-5,5-5
		s5,2.2,5,5c0,3.3,2.7,6,6,6c2.8,0,5,2.2,5,5s-2.2,5-5,5c-3.3,0-6,2.7-6,6C92.6,259.2,90.4,261.4,87.6,261.4z"/>
	<path class="st4" d="M120.2,325c-1.3,0-2.6-0.5-3.5-1.5l-11-11c-2-2-2-5.1,0-7.1l11-11c2-2,5.1-2,7.1,0l11,11c2,2,2,5.1,0,7.1
		l-11,11C122.8,324.5,121.5,325,120.2,325z M116.3,309l3.9,3.9l3.9-3.9l-3.9-3.9L116.3,309z"/>
</g>
</svg>
