<?xml version="1.0" encoding="utf-8"?>
<!-- Generator: Adobe Illustrator 25.0.1, SVG Export Plug-In . SVG Version: 6.00 Build 0)  -->
<svg version="1.1" id="Capa_1" xmlns="http://www.w3.org/2000/svg" xmlns:xlink="http://www.w3.org/1999/xlink" x="0px" y="0px"
	 viewBox="0 0 512 512" style="enable-background:new 0 0 512 512;" xml:space="preserve">
<style type="text/css">
	.st0{opacity:0.5;fill:#DBEAFE;}
	.st1{opacity:0.2;}
	.st2{fill:#6583FE;}
	.st3{fill:#8399FE;}
	.st4{fill:#9FB0FE;}
	.st5{fill:#CCFBF1;}
	.st6{fill:#FFFFFF;}
	.st7{fill:#FFE266;}
	.st8{fill:#FEF3C7;}
	.st9{fill:#2626BC;}
	.st10{fill:#01ECA5;}
</style>
<path class="st0" d="M418.3,2.5c-55.7-9.5-178.3,12.2-200,105c-14.4,61.7-14,112.1-50.4,113c-21.7,0.6-33-44.3-62.9-48
	c-39-4.8-66.1,27.7-83.1,57.1c-37.2,64.8-25.6,174.9,23.4,228.6c118.5,130.1,259.2-6,319.4-112.3c38.6-68.2,125.6-123.4,143.8-200.2
	C523.6,81.4,489.9,14.7,418.3,2.5L418.3,2.5z"/>
<g class="st1">
	<path class="st2" d="M445.1,212.8c-7.2-7.7-17.5-12.2-28.1-12.2h-56.8V186c0-6.1-4.9-11-11-11h-126c0-1.7-0.8-3.3-2.4-4.3
		c-7.2-4.4-11.5-12-11.5-20.4s4.3-16,11.5-20.4c3.1-1.9,3.1-6.6,0-8.5c-7.2-4.4-11.5-12-11.5-20.4s4.3-16,11.5-20.4
		c2.4-1.4,3.1-4.5,1.7-6.9c-1.4-2.4-4.5-3.1-6.9-1.7c-10.2,6.2-16.2,17.1-16.2,29c0,9.5,3.9,18.4,10.7,24.7
		c-6.8,6.3-10.7,15.2-10.7,24.7s3.9,18.4,10.7,24.7h-91.1c-6.1,0-11,4.9-11,11v213.3v1.1c-4,2.9-8,6.2-11.7,10
		c-23.3,23.3-30.5,53.9-16.1,68.3c11.3,11.3,32.5,9.3,52.3-3.3c10.8,6.6,25.6,10.7,42,10.7c26.3,0,48.6-10.5,56.6-25.1H327
		c18.3,0,33.1-14.8,33.1-33.1v-8.5h34.4c27.2,0,49.9-21.2,51.8-48.3l9-129.4C456,231.1,452.3,220.6,445.1,212.8L445.1,212.8z
		 M427.1,239.7l-9,129.4c-0.9,12.4-11.2,22.1-23.6,22.1h-8.9c-10.2,0-19.4-4.7-25.4-12v-7.7V240.8c6-7.3,15.2-12,25.4-12h31.1
		c2.8,0,5.5,1,7.5,3C426.3,234,427.3,236.8,427.1,239.7z"/>
	<path class="st2" d="M146,120c0,11.9,6.1,22.7,16.2,29c0.8,0.5,1.7,0.7,2.6,0.7c1.7,0,3.3-0.9,4.3-2.4c1.4-2.4,0.7-5.4-1.7-6.9
		c-7.2-4.4-11.5-12-11.5-20.4s4.3-16,11.5-20.4c3.1-1.9,3.1-6.6,0-8.5c-7.2-4.4-11.5-12-11.5-20.4s4.3-16,11.5-20.4
		c2.4-1.4,3.1-4.5,1.7-6.9c-1.4-2.4-4.5-3.1-6.9-1.7c-10.2,6.2-16.2,17.1-16.2,29c0,9.5,3.9,18.4,10.7,24.7
		C149.9,101.6,146,110.4,146,120z"/>
	<path class="st2" d="M262.7,105.1c0.8,0.5,1.7,0.7,2.6,0.7c1.7,0,3.3-0.8,4.3-2.4c1.4-2.4,0.7-5.4-1.7-6.9
		c-7.2-4.4-11.5-12-11.5-20.4c0-8.4,4.3-16,11.5-20.4c2.4-1.4,3.1-4.5,1.7-6.9c-1.4-2.4-4.5-3.1-6.9-1.7
		c-10.2,6.2-16.2,17.1-16.2,29C246.5,88,252.5,98.9,262.7,105.1z"/>
	<path class="st2" d="M321.8,148.9c0.8,0.5,1.7,0.7,2.6,0.7c1.7,0,3.3-0.9,4.3-2.4c1.4-2.4,0.7-5.4-1.7-6.9
		c-7.2-4.4-11.5-12-11.5-20.4s4.3-16,11.5-20.4c2.4-1.4,3.1-4.5,1.7-6.9c-1.4-2.4-4.5-3.1-6.9-1.7c-10.2,6.2-16.2,17.1-16.2,29
		C305.5,131.9,311.6,142.7,321.8,148.9z"/>
</g>
<path class="st3" d="M394.5,399.4h-56c-7.8,0-14.1-6.3-14.1-14.1V194.7c0-7.8,6.3-14.1,14.1-14.1H417c10.6,0,20.8,4.4,28.1,12.2
	c7.2,7.7,11,18.3,10.2,28.8l-9,129.4C444.5,378.1,421.7,399.4,394.5,399.4z M385.6,371.1h8.9c12.4,0,22.8-9.6,23.6-22.1l9-129.4
	c0.2-2.9-0.8-5.7-2.9-7.8c-2-2-4.7-3-7.5-3h-31.1c-18.2,0-33,14.8-33,33v96.3C352.6,356.4,367.4,371.1,385.6,371.1z"/>
<path class="st4" d="M327,441H140.9c-18.3,0-33.1-14.8-33.1-33.1V166c0-6.1,4.9-11,11-11h230.3c6.1,0,11,4.9,11,11v241.9
	C360.2,426.2,345.3,441,327,441L327,441z"/>
<path class="st5" d="M360.2,351.4h-68.6c-5.5,0-10-4.5-10-10V209.9c0-5.5,4.5-10,10-10h68.6V351.4z"/>
<path class="st5" d="M107.8,199.9h23.6c5.5,0,10,4.5,10,10v131.6c0,5.5-4.5,10-10,10h-23.6V199.9z"/>
<path class="st6" d="M107.8,379.2v28.6c0,18.3,14.8,33.1,33.1,33.1H327c18.3,0,33.1-14.8,33.1-33.1v-28.6H107.8z"/>
<ellipse class="st7" cx="174.3" cy="429.2" rx="59.7" ry="36.9"/>
<path class="st8" d="M174.3,392.3c33,0,59.7,16.5,59.7,36.9c0,1.1-0.1,2.2-0.2,3.2c-11.7-0.1-11.8-6.5-23.7-6.5
	c-11.9,0-11.9,6.5-23.9,6.5c-11.9,0-11.9-6.5-23.9-6.5c-11.9,0-11.9,6.5-23.9,6.5c-11.9,0-11.9-6.4-23.7-6.5
	C117.4,407.1,143.1,392.3,174.3,392.3L174.3,392.3z"/>
<ellipse transform="matrix(0.7071 -0.7071 0.7071 0.7071 -258.6992 208.3264)" class="st7" cx="122.1" cy="416.4" rx="59.7" ry="36.9"/>
<path class="st8" d="M96.1,390.4c23.3-23.3,53.9-30.5,68.3-16.1c0.8,0.8,1.5,1.6,2.1,2.5c-8.3,8.2-12.9,3.7-21.3,12.1
	c-8.4,8.4-3.9,13-12.3,21.5s-13,3.9-21.5,12.3s-3.9,13-12.3,21.5c-8.4,8.4-13,3.9-21.3,12.1C66.4,441,74,412.4,96.1,390.4
	L96.1,390.4z"/>
<g>
	<path class="st9" d="M448.7,189.4c-8.2-8.8-19.7-13.8-31.7-13.8h-51.8V166c0-8.8-7.2-16-16-16H219.6c-6.5-4.5-10.3-11.7-10.3-19.7
		c0-8.4,4.3-16,11.5-20.4c0,0,0,0,0.1-0.1c0.2-0.2,0.5-0.3,0.7-0.5c0,0,0,0,0,0c0.2-0.2,0.4-0.4,0.6-0.6c0-0.1,0.1-0.1,0.1-0.2
		c0-0.1,0.1-0.1,0.1-0.2c0.1-0.1,0.1-0.2,0.1-0.3c0.1-0.2,0.2-0.3,0.2-0.5c0.1-0.1,0.1-0.3,0.2-0.4c0-0.2,0.1-0.3,0.1-0.5
		c0-0.2,0.1-0.3,0.1-0.5c0-0.2,0-0.3,0-0.5s0-0.3,0-0.5c0-0.2,0-0.3-0.1-0.5c0-0.2-0.1-0.3-0.1-0.5c0-0.2-0.1-0.3-0.2-0.4
		c-0.1-0.2-0.1-0.3-0.2-0.5c0-0.1-0.1-0.2-0.1-0.3c0,0-0.1-0.1-0.1-0.1c-0.1-0.2-0.2-0.3-0.3-0.4c-0.1-0.1-0.2-0.2-0.3-0.4
		s-0.2-0.2-0.4-0.3c-0.1-0.1-0.3-0.2-0.4-0.3c0,0-0.1-0.1-0.1-0.1c-7.2-4.4-11.5-12-11.5-20.4s4.3-16,11.5-20.4
		c2.4-1.4,3.1-4.5,1.7-6.9c-1.4-2.4-4.5-3.1-6.9-1.7c-10.2,6.2-16.2,17.1-16.2,29c0,9.5,3.9,18.4,10.7,24.7
		c-6.8,6.3-10.7,15.2-10.7,24.7c0,7.2,2.2,14.1,6.3,19.7h-86.7c-8.8,0-16,7.2-16,16v180.5c0,2.8,2.2,5,5,5s5-2.2,5-5V166
		c0-3.3,2.7-6,6-6h230.3c3.3,0,6,2.7,6,6v241.9c0,15.5-12.6,28.1-28.1,28.1h-60.5c-2.8,0-5,2.2-5,5s2.2,5,5,5H327
		c21,0,38.1-17.1,38.1-38.1v-3.5h29.4c29.8,0,54.7-23.3,56.8-53l9-129.4C461.1,210,456.9,198.2,448.7,189.4L448.7,189.4z
		 M365.2,222.7c0,0,0.1-0.1,0.1-0.1c5.3-5.6,12.6-8.8,20.3-8.8h31.1c1.6,0,3,0.6,4,1.5c1.1,1.1,1.6,2.5,1.5,4l-9,129.4
		c-0.7,9.8-8.9,17.4-18.6,17.4h-8.9c-7.8,0-15-3.1-20.3-8.8c0,0-0.1-0.1-0.1-0.1V222.7z M450.3,221.3l-9,129.4
		c-1.7,24.5-22.3,43.7-46.8,43.7h-29.4v-24.2c6,3.9,13,6,20.4,6h8.9c15,0,27.6-11.7,28.6-26.7l9-129.4c0.3-4.4-1.2-8.6-4.4-11.7
		c-2.8-2.8-6.8-4.5-11.1-4.5h-31.1c-7.4,0-14.4,2.1-20.4,6v-24.2H417c9.2,0,18.1,3.9,24.4,10.6C447.7,203,451,212.1,450.3,221.3
		L450.3,221.3z"/>
	<path class="st9" d="M146,100c0,11.9,6.1,22.7,16.2,29c0.8,0.5,1.7,0.7,2.6,0.7c1.7,0,3.3-0.9,4.3-2.4c1.4-2.4,0.7-5.4-1.7-6.9
		c-7.2-4.4-11.5-12-11.5-20.4c0-8.4,4.3-16,11.5-20.4c0,0,0,0,0.1-0.1c0.2-0.2,0.5-0.3,0.7-0.5c0,0,0,0,0,0c0.2-0.2,0.4-0.4,0.6-0.6
		c0-0.1,0.1-0.1,0.1-0.2c0-0.1,0.1-0.1,0.1-0.2c0.1-0.1,0.1-0.2,0.1-0.3c0.1-0.2,0.2-0.3,0.2-0.5c0.1-0.1,0.1-0.3,0.2-0.4
		c0-0.2,0.1-0.3,0.1-0.5c0-0.2,0.1-0.3,0.1-0.5c0-0.2,0-0.3,0-0.5s0-0.3,0-0.5c0-0.2,0-0.3-0.1-0.5c0-0.2-0.1-0.3-0.1-0.5
		c0-0.2-0.1-0.3-0.2-0.4c-0.1-0.2-0.1-0.3-0.2-0.5c0-0.1-0.1-0.2-0.1-0.3c0,0-0.1-0.1-0.1-0.1c-0.1-0.2-0.2-0.3-0.3-0.4
		c-0.1-0.1-0.2-0.2-0.3-0.4c-0.1-0.1-0.2-0.2-0.4-0.3c-0.1-0.1-0.3-0.2-0.4-0.3c0,0-0.1-0.1-0.1-0.1c-7.2-4.4-11.5-12-11.5-20.4
		c0-8.4,4.3-16,11.5-20.4c2.4-1.4,3.1-4.5,1.7-6.9c-1.4-2.4-4.5-3.1-6.9-1.7c-10.2,6.2-16.2,17.1-16.2,29c0,9.5,3.9,18.4,10.7,24.7
		C149.9,81.6,146,90.4,146,100z"/>
	<path class="st9" d="M262.7,85.1c0.8,0.5,1.7,0.7,2.6,0.7c1.7,0,3.3-0.8,4.3-2.4c1.4-2.4,0.7-5.4-1.7-6.9
		c-7.2-4.4-11.5-12-11.5-20.4s4.3-16,11.5-20.4c2.4-1.4,3.1-4.5,1.7-6.9c-1.4-2.4-4.5-3.1-6.9-1.7c-10.2,6.2-16.2,17.1-16.2,29
		S252.5,78.9,262.7,85.1z"/>
	<path class="st9" d="M321.8,128.9c0.8,0.5,1.7,0.7,2.6,0.7c1.7,0,3.3-0.9,4.3-2.4c1.4-2.4,0.7-5.4-1.7-6.9
		c-7.2-4.4-11.5-12-11.5-20.4c0-8.4,4.3-16,11.5-20.4c2.4-1.4,3.1-4.5,1.7-6.9c-1.4-2.4-4.5-3.1-6.9-1.7
		c-10.2,6.2-16.2,17.1-16.2,29C305.5,111.9,311.6,122.7,321.8,128.9z"/>
	<path class="st9" d="M219.1,398.9c-11.6-7.2-26.7-11.2-42.9-11.5c-1.1-6.6-3.9-12.2-8.3-16.6c-8.2-8.2-20.9-10.9-35.5-7.4
		c-13.8,3.3-28,11.6-39.9,23.5S72.3,412.9,69,426.7c-3.5,14.7-0.8,27.3,7.4,35.5c5.9,5.9,14,8.9,23.4,8.9c3.8,0,7.9-0.5,12.1-1.5
		c6.8-1.6,13.7-4.5,20.4-8.4c11.7,6.4,26.5,9.9,41.9,9.9c16.9,0,32.8-4.1,44.9-11.6c12.8-7.9,19.9-18.7,19.9-30.4
		S231.9,406.8,219.1,398.9L219.1,398.9z M109.6,459.9c-11.2,2.6-20.4,0.9-26.1-4.8c-12.2-12.2-4.8-40.3,16.1-61.3
		c10.6-10.6,23.1-18.1,35.1-20.9c11.2-2.6,20.4-0.9,26.1,4.8c12.2,12.2,4.8,40.3-16.1,61.3C134.1,449.7,121.6,457.1,109.6,459.9z
		 M174.3,461.1c-11.7,0-23-2.2-32.4-6.3c3.4-2.6,6.8-5.5,9.9-8.7c11.9-11.9,20.3-26.1,23.5-39.9c0.7-3.1,1.2-6,1.4-8.9
		c28.6,0.8,52.3,15.1,52.3,31.9C229,446.5,203.9,461.1,174.3,461.1L174.3,461.1z"/>
</g>
<path class="st6" d="M312.5,242.5h-76.5c-2.8,0-5-2.2-5-5s2.2-5,5-5h76.5c2.8,0,5,2.2,5,5S315.2,242.5,312.5,242.5z"/>
<path class="st6" d="M312.5,263.1h-46.5c-2.8,0-5-2.2-5-5s2.2-5,5-5h46.5c2.8,0,5,2.2,5,5C317.5,260.9,315.2,263.1,312.5,263.1z"/>
<path class="st7" d="M91.7,116c-2.8,0-5-2.2-5-5c0-3.3-2.7-6-6-6c-2.8,0-5-2.2-5-5s2.2-5,5-5c3.3,0,6-2.7,6-6c0-2.8,2.2-5,5-5
	s5,2.2,5,5c0,3.3,2.7,6,6,6c2.8,0,5,2.2,5,5s-2.2,5-5,5c-3.3,0-6,2.7-6,6C96.7,113.7,94.4,116,91.7,116z"/>
<path class="st10" d="M420.6,140.7c-2.8,0-5-2.2-5-5c0-3.3-2.7-6-6-6c-2.8,0-5-2.2-5-5s2.2-5,5-5c3.3,0,6-2.7,6-6c0-2.8,2.2-5,5-5
	s5,2.2,5,5c0,3.3,2.7,6,6,6c2.8,0,5,2.2,5,5s-2.2,5-5,5c-3.3,0-6,2.7-6,6C425.6,138.4,423.4,140.7,420.6,140.7z"/>
<path class="st10" d="M400.9,469c-2.8,0-5-2.2-5-5c0-3.3-2.7-6-6-6c-2.8,0-5-2.2-5-5s2.2-5,5-5c3.3,0,6-2.7,6-6c0-2.8,2.2-5,5-5
	s5,2.2,5,5c0,3.3,2.7,6,6,6c2.8,0,5,2.2,5,5s-2.2,5-5,5c-3.3,0-6,2.7-6,6C405.9,466.8,403.7,469,400.9,469z"/>
<path class="st2" d="M390.9,86.1c-1.3,0-2.6-0.5-3.5-1.5c-2-2-2-5.1,0-7.1l10-10c2-2,5.1-2,7.1,0c2,2,2,5.1,0,7.1l-10,10
	C393.5,85.6,392.2,86.1,390.9,86.1z"/>
<path class="st2" d="M56.6,361.4c-1.3,0-2.6-0.5-3.5-1.5c-2-2-2-5.1,0-7.1l10-10c2-2,5.1-2,7.1,0c2,2,2,5.1,0,7.1l-10,10
	C59.2,360.9,57.9,361.4,56.6,361.4z"/>
</svg>
