<?xml version="1.0" encoding="utf-8"?>
<!-- Generator: Adobe Illustrator 25.0.1, SVG Export Plug-In . SVG Version: 6.00 Build 0)  -->
<svg version="1.1" id="Capa_1" xmlns="http://www.w3.org/2000/svg" xmlns:xlink="http://www.w3.org/1999/xlink" x="0px" y="0px"
	 viewBox="0 0 512 512" style="enable-background:new 0 0 512 512;" xml:space="preserve">
<style type="text/css">
	.st0{opacity:0.5;fill:#DBEAFE;}
	.st1{opacity:0.11;fill:#2626BC;enable-background:new    ;}
	.st2{fill:#FFE266;}
	.st3{fill:#FEF3C7;}
	.st4{fill:#02FFB3;}
	.st5{fill:#01ECA5;}
	.st6{fill:#8399FE;}
	.st7{fill:#9FB0FE;}
	.st8{fill:#2626BC;}
	.st9{fill:#B7C5FF;}
	.st10{fill:#D2DEFF;}
</style>
<path class="st0" d="M364.8,52.1c-69.1-27-164.8-16.8-217.7,31.5c-37.3,34.1-8.4,43.8,17,106.2C182.6,234.9,0,228.7,0,310.3
	c0,94.3,132.3,76.4,181.3,87.2c75,16.5,140.5,78.2,220.7,70.1c69.8-7.1,96.4-61.9,106.1-124.6C526.2,226,481.8,97.9,364.8,52.1z"/>
<path class="st1" d="M409.2,126.5h-47v-22.1c0-8.9-10.8-13.4-17.1-7.1L316,126.5H107.2c-11.1,0-20,9-20,20v33h-31
	c-11,0-20,8.9-20,20v200c0,11,9,20,20,20h47v22.1c0,8.9,10.8,13.4,17.1,7.1l29.1-29.1h208.8c11,0,20-9,20-20v-33h31c11,0,20-9,20-20
	v-200C429.2,135.4,420.2,126.5,409.2,126.5L409.2,126.5z"/>
<path class="st2" d="M452.5,126.4v200c0,11-9,20-20,20h-302c-11.1,0-20-9-20-20v-200c0-11.1,8.9-20,20-20h208.8l29.1-29.2
	c6.3-6.3,17.1-1.8,17.1,7.1v22.1h47C443.5,106.4,452.5,115.4,452.5,126.4z"/>
<path class="st3" d="M295.8,311.4v-170c0-2.8,2.2-5,5-5h116.7c2.8,0,5,2.2,5,5v170c0,2.8-2.2,5-5,5H300.8
	C298.1,316.4,295.8,314.2,295.8,311.4z"/>
<path class="st3" d="M146.4,311.4v-170c0-2.8,2.2-5,5-5h116.7c2.8,0,5,2.2,5,5v170c0,2.8-2.2,5-5,5H151.4
	C148.7,316.4,146.4,314.2,146.4,311.4z"/>
<path class="st4" d="M401.5,179.4v200c0,11-9,20-20,20H172.7l-29.1,29.1c-6.3,6.3-17.1,1.8-17.1-7.1v-22.1h-47c-11.1,0-20-9-20-20
	v-200c0-11.1,8.9-20,20-20h302C392.5,159.4,401.5,168.3,401.5,179.4L401.5,179.4z"/>
<path class="st5" d="M401.5,179.4v179h-271c-17.6,0-32-14.4-32-32v-167h283C392.5,159.4,401.5,168.3,401.5,179.4L401.5,179.4z"/>
<path class="st6" d="M401.5,179.4v167h-271c-11.1,0-20-9-20-20v-167h271C392.5,159.4,401.5,168.3,401.5,179.4L401.5,179.4z"/>
<path class="st7" d="M205,321.2h-57.9c-2.8,0-5-2.2-5-5v-57.9c0-2.8,2.2-5,5-5H205c2.8,0,5,2.2,5,5v57.9
	C210,318.9,207.8,321.2,205,321.2z"/>
<path class="st3" d="M239.6,315.3H180c-2.8,0-5-2.2-5-5s2.2-5,5-5h59.6c2.8,0,5,2.2,5,5S242.4,315.3,239.6,315.3z"/>
<path class="st3" d="M239.6,296.9h-32.4c-2.8,0-5-2.2-5-5s2.2-5,5-5h32.4c2.8,0,5,2.2,5,5S242.4,296.9,239.6,296.9z"/>
<path class="st8" d="M432.5,101.4h-42V84.3c0-6.2-3.5-11.5-9.3-13.9c-5.7-2.4-12-1.1-16.4,3.3l-27.7,27.7H130.5
	c-13.8,0-25,11.2-25,25v28h-26c-13.8,0-25,11.2-25,25v200c0,13.8,11.2,25,25,25h42v17.1c0,6.2,3.5,11.5,9.3,13.9
	c1.9,0.8,3.9,1.2,5.8,1.2c3.9,0,7.6-1.5,10.5-4.4l27.7-27.7h139.5c2.8,0,5-2.2,5-5s-2.2-5-5-5H172.7c-1.3,0-2.6,0.5-3.5,1.5L140,425
	c-2.2,2.2-4.7,1.4-5.4,1.1c-0.7-0.3-3.1-1.5-3.1-4.6v-22.1c0-2.8-2.2-5-5-5h-47c-8.3,0-15-6.7-15-15v-200c0-8.3,6.7-15,15-15h302
	c8.3,0,15,6.7,15,15v162h-266c-8.3,0-15-6.7-15-15V187.5c0-2.8-2.2-5-5-5s-5,2.2-5,5v138.9c0,13.8,11.2,25,25,25h266v28
	c0,8.3-6.7,15-15,15h-39.1c-2.8,0-5,2.2-5,5s2.2,5,5,5h39.1c13.8,0,25-11.2,25-25v-28h26c13.8,0,25-11.2,25-25v-200
	C457.5,112.6,446.3,101.4,432.5,101.4z M447.5,326.4c0,8.3-6.7,15-15,15h-26v-162c0-13.8-11.2-25-25-25h-266v-28c0-8.3,6.7-15,15-15
	h208.8c1.3,0,2.6-0.5,3.5-1.5L372,80.8c2.2-2.2,4.7-1.4,5.5-1.1s3.1,1.5,3.1,4.6v22.1c0,2.8,2.2,5,5,5h47c8.3,0,15,6.7,15,15
	L447.5,326.4z"/>
<path class="st6" d="M74.5,123.4c-3.7,0-7.5-1.4-10.3-4.3c-5.7-5.7-5.7-15,0-20.7c2.8-2.8,6.4-4.3,10.3-4.3s7.6,1.5,10.3,4.3
	c5.7,5.7,5.7,15,0,20.7C82,122,78.2,123.4,74.5,123.4z M74.5,104.2c-1.2,0-2.4,0.5-3.3,1.3c-1.8,1.8-1.8,4.7,0,6.5
	c1.8,1.8,4.7,1.8,6.5,0c1.8-1.8,1.8-4.7,0-6.5C76.9,104.7,75.7,104.2,74.5,104.2z"/>
<path class="st6" d="M224.3,447.4c-3.7,0-7.5-1.4-10.3-4.3c-5.7-5.7-5.7-15,0-20.7c5.7-5.7,15-5.7,20.7,0c5.7,5.7,5.7,15,0,20.6
	C231.7,446,228,447.4,224.3,447.4L224.3,447.4z M224.3,428.2c-1.2,0-2.4,0.4-3.3,1.3c-1.8,1.8-1.8,4.7,0,6.5c1.8,1.8,4.7,1.8,6.5,0
	c1.8-1.8,1.8-4.7,0-6.5C226.6,428.7,225.4,428.2,224.3,428.2L224.3,428.2z"/>
<path class="st5" d="M260,474.6c-3.7,0-7.5-1.4-10.3-4.3c-5.7-5.7-5.7-15,0-20.6s15-5.7,20.7,0c2.8,2.8,4.3,6.4,4.3,10.3
	s-1.5,7.6-4.3,10.3v0v0C267.5,473.1,263.7,474.6,260,474.6z M260,455.4c-1.2,0-2.4,0.4-3.3,1.3c-1.8,1.8-1.8,4.7,0,6.5
	c1.8,1.8,4.7,1.8,6.5,0v0c0.9-0.9,1.3-2,1.3-3.3s-0.5-2.4-1.3-3.3C262.4,455.8,261.2,455.4,260,455.4L260,455.4z"/>
<path class="st5" d="M82.7,61.7h-3.2v-3.2c0-2.8-2.2-5-5-5s-5,2.2-5,5v3.2h-3.2c-2.8,0-5,2.2-5,5c0,2.8,2.2,5,5,5h3.2V75
	c0,2.8,2.2,5,5,5s5-2.2,5-5v-3.2h3.2c2.8,0,5-2.2,5-5C87.7,64,85.5,61.7,82.7,61.7z"/>
<path class="st8" d="M427.3,407.8h-3.2v-3.2c0-2.8-2.2-5-5-5s-5,2.2-5,5v3.2h-3.2c-2.8,0-5,2.2-5,5s2.2,5,5,5h3.2v3.2
	c0,2.8,2.2,5,5,5s5-2.2,5-5v-3.2h3.2c2.8,0,5-2.2,5-5S430.1,407.8,427.3,407.8z"/>
<path class="st9" d="M154.6,316.1c-0.8,0-1.5-0.2-2.3-0.6c-2.5-1.3-3.4-4.3-2.2-6.7c0.5-1,13.3-25.5,41.8-51.1
	c26.3-23.6,71.5-52.4,137.5-55.8c2.8-0.2,5.1,2,5.3,4.7c0.1,2.8-2,5.1-4.7,5.3c-63.1,3.3-106.3,30.8-131.3,53.3
	c-27.1,24.3-39.4,48-39.6,48.2C158.1,315.1,156.4,316.1,154.6,316.1L154.6,316.1z"/>
<path class="st9" d="M345.7,223.3c-1.3,0-2.6-0.5-3.5-1.5c-2-2-2-5.1,0-7.1l8.2-8.2l-8.2-8.2c-2-2-2-5.1,0-7.1c2-2,5.1-2,7.1,0
	L361,203c2,2,2,5.1,0,7.1l-11.8,11.8C348.2,222.8,347,223.3,345.7,223.3L345.7,223.3z"/>
<path class="st4" d="M322.9,276.9c-10.5,0-19-8.5-19-19s8.5-19,19-19c10.5,0,19,8.5,19,19S333.3,276.9,322.9,276.9z M322.9,248.9
	c-5,0-9,4.1-9,9c0,5,4,9,9,9s9-4,9-9S327.8,248.9,322.9,248.9z"/>
<path class="st4" d="M274,276.9c-10.5,0-19-8.5-19-19s8.5-19,19-19s19,8.5,19,19S284.5,276.9,274,276.9z M274,248.9c-5,0-9,4.1-9,9
	c0,5,4,9,9,9s9-4,9-9S279,248.9,274,248.9z"/>
<path class="st2" d="M329.9,302.1l6.6-6.6c2-2,2-5.1,0-7.1c-2-2-5.1-2-7.1,0l-6.6,6.6l-6.6-6.6c-2-2-5.1-2-7.1,0s-2,5.1,0,7.1
	l6.6,6.6l-6.6,6.6c-2,2-2,5.1,0,7.1c1,1,2.3,1.5,3.5,1.5s2.6-0.5,3.5-1.5l6.6-6.6l6.6,6.6c1,1,2.3,1.5,3.5,1.5
	c1.3,0,2.6-0.5,3.5-1.5c2-2,2-5.1,0-7.1L329.9,302.1z"/>
<path class="st2" d="M221.9,199.3l6.6-6.6c2-2,2-5.1,0-7.1c-2-2-5.1-2-7.1,0l-6.6,6.6l-6.6-6.6c-2-2-5.1-2-7.1,0c-2,2-2,5.1,0,7.1
	l6.6,6.6l-6.6,6.6c-2,2-2,5.1,0,7.1c1,1,2.3,1.5,3.5,1.5c1.3,0,2.6-0.5,3.5-1.5l6.6-6.6l6.6,6.6c1,1,2.3,1.5,3.5,1.5
	s2.6-0.5,3.5-1.5c2-2,2-5.1,0-7.1L221.9,199.3z"/>
<path class="st10" d="M170.3,238.1c0-9.2-7.5-16.6-16.6-16.6s-16.6,7.5-16.6,16.6c0,4.5,1.8,8.6,4.8,11.6c-2.9,3-4.8,7.1-4.8,11.6
	c0,2.8,2.2,5,5,5s5-2.2,5-5c0-3.6,3-6.6,6.6-6.6s6.6,3,6.6,6.6c0,2.8,2.2,5,5,5s5-2.2,5-5c0-4.5-1.8-8.6-4.8-11.6
	C168.5,246.7,170.3,242.6,170.3,238.1L170.3,238.1z M153.7,231.5c3.6,0,6.6,3,6.6,6.6s-3,6.6-6.6,6.6s-6.6-3-6.6-6.6
	S150.1,231.5,153.7,231.5z"/>
</svg>
