<?xml version="1.0" encoding="utf-8"?>
<!-- Generator: Adobe Illustrator 25.0.1, SVG Export Plug-In . SVG Version: 6.00 Build 0)  -->
<svg version="1.1" id="Capa_1" xmlns="http://www.w3.org/2000/svg" xmlns:xlink="http://www.w3.org/1999/xlink" x="0px" y="0px"
	 viewBox="0 0 512 512" style="enable-background:new 0 0 512 512;" xml:space="preserve">
<style type="text/css">
	.st0{opacity:0.5;fill:#DBEAFE;}
	.st1{opacity:0.11;fill:#2626BC;enable-background:new    ;}
	.st2{fill:#FEF3C7;}
	.st3{fill:#FFE266;}
	.st4{fill:#CCFBF1;}
	.st5{fill:#FFA8CF;}
	.st6{fill:#6583FE;}
	.st7{fill:#4369FD;}
	.st8{fill:#FFFFFF;}
	.st9{fill:#97FFD2;}
	.st10{fill:#DCFDEE;}
	.st11{fill:#02FFB3;}
	.st12{fill:#8399FE;}
	.st13{fill:#01ECA5;}
	.st14{fill:#2626BC;}
</style>
<path class="st0" d="M364.8,55.2c-69.1-27-164.8-16.8-217.7,31.5c-37.3,34.1-8.4,43.8,17,106.2C182.6,238,0,231.8,0,313.4
	c0,94.3,132.3,76.4,181.3,87.2c75,16.5,140.5,78.2,220.7,70.1c69.8-7.1,96.4-61.9,106.1-124.6C526.2,229.1,481.8,101,364.8,55.2
	L364.8,55.2z"/>
<path class="st1" d="M433.8,154.1v252.4c0,11.6-9.4,21-21,21H57.2c-11.6,0-21-9.4-21-21V154.1c0-11.6,9.4-21,21-21h355.6
	C424.4,133.1,433.8,142.5,433.8,154.1z"/>
<path class="st2" d="M454.8,133.1v252.4c0,11.6-9.4,21-21,21H78.2c-11.6,0-21-9.4-21-21V133.1c0-11.6,9.4-21,21-21h355.6
	C445.4,112.1,454.8,121.5,454.8,133.1z"/>
<path class="st3" d="M411.2,326.8l-24.5-25.9c-2-2.1-5.3-2.1-7.3,0L355,326.8c-3,3.2-0.8,8.4,3.6,8.4h12.1v38.3c0,2.8,2.2,5,5,5
	h14.7c2.8,0,5-2.2,5-5v-38.3h12.1C411.9,335.2,414.2,330,411.2,326.8L411.2,326.8z"/>
<path class="st3" d="M132.6,300.9c-2-2.1-5.3-2.1-7.3,0l-24.5,25.9c-3,3.2-0.8,8.4,3.6,8.4h12.1v38.3c0,2.8,2.2,5,5,5h14.7
	c2.8,0,5-2.2,5-5v-38.3h12.1c4.4,0,6.6-5.2,3.6-8.4L132.6,300.9z"/>
<path class="st3" d="M309.4,245.1c-29.5,0-77.3,0-106.7,0c-14.7,0-26.6,11.9-26.6,26.6c0,29.5,23.9,53.4,53.4,53.4h53.3
	c29.5,0,53.4-23.9,53.4-53.4C336,257.1,324.1,245.1,309.4,245.1L309.4,245.1z"/>
<path class="st4" d="M361,190.1v96.8c0,2.8-2.2,5-5,5H156c-2.8,0-5-2.2-5-5v-96.8c0-2.8,2.2-5,5-5h200
	C358.8,185.1,361,187.4,361,190.1z"/>
<path class="st5" d="M336,271.8c0,7.1-1.4,13.9-3.9,20.1H179.9c-2.5-6.2-3.9-13-3.9-20.1c0-7.4,3-14,7.8-18.8
	c4.8-4.8,11.5-7.8,18.9-7.8h106.7c7.4,0,14,3,18.9,7.8C333,257.8,336,264.4,336,271.8L336,271.8z"/>
<path class="st3" d="M206.9,151.1c-13.5,0-24.5,11-24.5,24.5c0,27.1,22,49.1,49.1,49.1h49.1c27.1,0,49.1-22,49.1-49.1
	c0-13.5-11-24.5-24.5-24.5H206.9z"/>
<path class="st6" d="M204.1,406.5c0-28.7,23.2-51.9,51.9-51.9s51.9,23.2,51.9,51.9H204.1z"/>
<path class="st6" d="M454.8,133.1v33.2H57.2v-33.2c0-11.6,9.4-21,21-21h355.6C445.4,112.1,454.8,121.5,454.8,133.1L454.8,133.1z"/>
<path class="st7" d="M302.6,112.1c-4.7,12.2-16.5,20.9-30.4,20.9h-32.5c-9,0-17.1-3.6-23-9.5c-3.2-3.2-5.7-7-7.4-11.3L302.6,112.1z"
	/>
<circle class="st8" cx="91.8" cy="140.3" r="5.6"/>
<circle class="st8" cx="111.7" cy="140.3" r="5.6"/>
<circle class="st8" cx="131.7" cy="140.3" r="5.6"/>
<path class="st9" d="M282.6,311.3H256v-26.6c0-29.5,23.9-53.4,53.4-53.4c14.7,0,26.6,11.9,26.6,26.6
	C336,287.4,312.1,311.3,282.6,311.3L282.6,311.3z"/>
<path class="st10" d="M336,258c0,14.7-6,28.1-15.6,37.7s-23,15.6-37.7,15.6H267c14.7,0,28.1-6,37.7-15.6c9.6-9.7,15.6-23,15.6-37.7
	c0-7.4-3-14-7.8-18.8c-3.4-3.4-7.6-5.9-12.4-7c3-0.5,6-0.8,9.2-0.8c7.4,0,14,3,18.9,7.8C333,244,336,250.6,336,258z"/>
<path class="st9" d="M280.5,211H256v-24.5c0-27.1,22-49.1,49.1-49.1c13.5,0,24.5,11,24.5,24.5C329.7,189,307.7,211,280.5,211z"/>
<path class="st10" d="M329.7,161.8c0,13.6-5.5,25.9-14.4,34.8c-8.9,8.9-21.2,14.4-34.8,14.4h-15.6c13.6,0,25.9-5.5,34.8-14.4
	c8.9-8.9,14.4-21.2,14.4-34.8c0-6.8-2.8-12.9-7.2-17.3c-3-3-6.7-5.2-10.9-6.3c3-0.6,6-0.9,9.2-0.9c6.8,0,12.9,2.8,17.3,7.2
	S329.7,155.1,329.7,161.8z"/>
<path class="st9" d="M272.3,119.2H256v-16.3c0-18,14.6-32.6,32.6-32.6c9,0,16.3,7.3,16.3,16.3C304.8,104.6,290.2,119.2,272.3,119.2z
	"/>
<path class="st10" d="M304.8,86.6c0,9-3.6,17.1-9.5,23c-5.9,5.9-14,9.5-23,9.5h-15.6c9,0,17.1-3.6,23-9.5c5.9-5.9,9.5-14,9.5-23
	c0-4.5-1.8-8.6-4.8-11.5c-1.5-1.4-3.2-2.6-5.1-3.4c2.9-0.8,6-1.3,9.2-1.3c4.5,0,8.5,1.8,11.5,4.8S304.8,82.1,304.8,86.6z"/>
<g>
	<path class="st11" d="M229.4,311.3H256v-26.6c0-29.5-23.9-53.4-53.4-53.4c-14.7,0-26.6,11.9-26.6,26.6
		C176,287.4,199.9,311.3,229.4,311.3L229.4,311.3z"/>
	<path class="st11" d="M231.5,211H256v-24.5c0-27.1-22-49.1-49.1-49.1c-13.5,0-24.5,11-24.5,24.5C182.3,189,204.3,211,231.5,211
		L231.5,211z"/>
	<path class="st11" d="M239.7,119.2H256v-16.3c0-18-14.6-32.6-32.6-32.6c-9,0-16.3,7.3-16.3,16.3
		C207.2,104.6,221.8,119.2,239.7,119.2z"/>
	<path class="st11" d="M355,313l24.5-25.9c2-2.1,5.3-2.1,7.3,0l24.5,25.9c3,3.2,0.8,8.4-3.6,8.4h-12.1v38.3c0,2.8-2.2,5-5,5h-14.7
		c-2.8,0-5-2.2-5-5v-38.3h-12.1C354.2,321.4,352,316.2,355,313L355,313z"/>
	<path class="st11" d="M100.8,313l24.5-25.9c2-2.1,5.3-2.1,7.3,0L157,313c3,3.2,0.8,8.4-3.6,8.4h-12.1v38.3c0,2.8-2.2,5-5,5h-14.7
		c-2.8,0-5-2.2-5-5v-38.3h-12.1C100.1,321.4,97.8,316.2,100.8,313z"/>
</g>
<path class="st12" d="M25.5,237.3c-3.7,0-7.5-1.4-10.3-4.3c-5.7-5.7-5.7-15,0-20.7s15-5.7,20.6,0s5.7,15,0,20.7h0
	C33,235.8,29.3,237.3,25.5,237.3L25.5,237.3z M32.3,229.5L32.3,229.5L32.3,229.5z M25.5,218.1c-1.2,0-2.4,0.4-3.3,1.3
	c-1.8,1.8-1.8,4.7,0,6.5c1.8,1.8,4.7,1.8,6.5,0c1.8-1.8,1.8-4.7,0-6.5C27.9,218.5,26.7,218.1,25.5,218.1L25.5,218.1z"/>
<path class="st12" d="M482.1,357.7c-3.9,0-7.6-1.5-10.3-4.3c-5.7-5.7-5.7-15,0-20.7c2.8-2.8,6.4-4.3,10.3-4.3s7.6,1.5,10.3,4.3
	c5.7,5.7,5.7,15,0,20.7h0c0,0,0,0,0,0C489.7,356.1,486,357.7,482.1,357.7L482.1,357.7z M482.1,338.4c-1.2,0-2.4,0.5-3.3,1.3
	c-1.8,1.8-1.8,4.7,0,6.5c0.9,0.9,2,1.3,3.3,1.3s2.4-0.5,3.3-1.3h0c1.8-1.8,1.8-4.7,0-6.5C484.5,338.9,483.4,338.4,482.1,338.4z"/>
<path class="st3" d="M194.6,434.6h-3.2v-3.2c0-2.8-2.2-5-5-5s-5,2.2-5,5v3.2h-3.2c-2.8,0-5,2.2-5,5s2.2,5,5,5h3.2v3.2
	c0,2.8,2.2,5,5,5s5-2.2,5-5v-3.2h3.2c2.8,0,5-2.2,5-5S197.4,434.6,194.6,434.6z"/>
<path class="st13" d="M238.3,445.9h-3.2v-3.2c0-2.8-2.2-5-5-5s-5,2.2-5,5v3.2h-3.2c-2.8,0-5,2.2-5,5s2.2,5,5,5h3.2v3.2
	c0,2.8,2.2,5,5,5s5-2.2,5-5v-3.2h3.2c2.8,0,5-2.2,5-5S241.1,445.9,238.3,445.9z"/>
<path class="st13" d="M122.7,77h-3.2v-3.2c0-2.8-2.2-5-5-5s-5,2.2-5,5V77h-3.2c-2.8,0-5,2.2-5,5s2.2,5,5,5h3.2v3.2c0,2.8,2.2,5,5,5
	s5-2.2,5-5V87h3.2c2.8,0,5-2.2,5-5S125.5,77,122.7,77z"/>
<path class="st14" d="M433.8,107.1H303.7c3.9-5.9,6.1-13,6.1-20.5c0-11.7-9.5-21.3-21.3-21.3c-13.9,0-26.1,7.6-32.6,18.9
	c-6.5-11.3-18.7-18.9-32.6-18.9c-11.7,0-21.3,9.5-21.3,21.3c0,7.6,2.3,14.6,6.1,20.5H78.2c-14.3,0-26,11.7-26,26v83.8
	c0,2.8,2.2,5,5,5s5-2.2,5-5v-45.6h116c4.5,25.3,26.7,44.7,53.3,44.7H251v36.1c-10.5-15.5-28.3-25.7-48.4-25.7
	c-17.4,0-31.6,14.2-31.6,31.6c0,32.2,26.2,58.4,58.4,58.4H251v33.5c-27.4,2.4-49.3,24.3-51.7,51.7H78.2c-8.8,0-16-7.2-16-16V245.1
	c0-2.8-2.2-5-5-5s-5,2.2-5,5v140.5c0,14.3,11.7,26,26,26h355.6c14.3,0,26-11.7,26-26V133.1C459.8,118.8,448.2,107.1,433.8,107.1
	L433.8,107.1z M288.6,75.3c6.2,0,11.3,5.1,11.3,11.3c0,15.2-12.4,27.6-27.6,27.6H261v-11.3C261,87.7,273.4,75.3,288.6,75.3z
	 M261,186.5c0-24.3,19.8-44.1,44.1-44.1c10.8,0,19.5,8.8,19.5,19.5c0,24.3-19.8,44.1-44.1,44.1H261V186.5z M223.4,75.3
	c15.2,0,27.6,12.4,27.6,27.6v11.3h-11.3c-15.2,0-27.6-12.4-27.6-27.6C212.2,80.4,217.2,75.3,223.4,75.3z M177.3,161.3H62.2v-28.2
	c0-8.8,7.2-16,16-16h139.7c6.2,4.4,13.7,7,21.8,7H251v31c-9.8-13.8-25.9-22.8-44.1-22.8C190.8,132.3,177.6,145.3,177.3,161.3
	L177.3,161.3z M187.3,161.8c0-10.8,8.8-19.5,19.5-19.5c24.3,0,44.1,19.8,44.1,44.1V206h-19.5C207.1,206,187.3,186.2,187.3,161.8
	L187.3,161.8z M261,284.7c0-26.7,21.7-48.4,48.4-48.4c11.9,0,21.6,9.7,21.6,21.6c0,26.7-21.7,48.4-48.4,48.4H261L261,284.7z
	 M181,258c0-11.9,9.7-21.6,21.6-21.6c26.7,0,48.4,21.7,48.4,48.4v21.6h-21.6C202.7,306.3,181,284.6,181,258z M256,359.6
	c24.2,0,44.1,18.4,46.6,41.9h-93.3C211.9,378,231.8,359.6,256,359.6L256,359.6z M433.8,401.5H312.7c-2.4-27.4-24.3-49.3-51.7-51.7
	v-33.5h21.6c32.2,0,58.4-26.2,58.4-58.4c0-17.4-14.2-31.6-31.6-31.6c-20.1,0-37.9,10.2-48.4,25.7V216h19.5
	c29.9,0,54.1-24.3,54.1-54.1c0-16.3-13.2-29.5-29.5-29.5c-18.2,0-34.3,9-44.1,22.8v-31h11.3c8.1,0,15.7-2.6,21.8-7h139.7
	c8.8,0,16,7.2,16,16v28.2h-92.6c-2.8,0-5,2.2-5,5s2.2,5,5,5h92.6v214.2C449.8,394.4,442.6,401.5,433.8,401.5L433.8,401.5z"/>
<path class="st14" d="M390.3,283.7c-1.9-2-4.5-3.1-7.3-3.1s-5.4,1.1-7.3,3.1l-24.5,25.9c-2.7,2.9-3.5,7.2-1.9,10.8
	c1.6,3.7,5.2,6,9.2,6h7.1v33.3c0,5.5,4.5,10,10,10h14.7c5.5,0,10-4.5,10-10v-33.3h7.1c4,0,7.6-2.4,9.2-6c1.6-3.7,0.8-7.9-1.9-10.8
	L390.3,283.7z M395.4,316.4c-2.8,0-5,2.2-5,5v38.3h-14.7v-38.3c0-2.8-2.2-5-5-5h-12.1l24.5-25.9l24.5,25.9H395.4z"/>
<path class="st14" d="M121.6,369.7h14.7c5.5,0,10-4.5,10-10v-33.3h7.1c4,0,7.6-2.4,9.2-6c1.6-3.7,0.8-7.9-1.9-10.8l-24.5-25.9
	c-1.9-2-4.5-3.1-7.3-3.1c-2.7,0-5.4,1.1-7.3,3.1l-24.5,25.9c-2.7,2.9-3.5,7.2-1.9,10.8c1.6,3.7,5.2,6,9.2,6h7.1v33.3
	C111.6,365.2,116.1,369.7,121.6,369.7L121.6,369.7z M104.5,316.4l24.5-25.9l24.5,25.9h-12.1c-2.8,0-5,2.2-5,5v38.3h-14.7v-38.3
	c0-2.8-2.2-5-5-5H104.5z"/>
</svg>
